<?xml version="1.0" encoding="utf-8"?>
<!-- Generator: Adobe Illustrator 27.3.1, SVG Export Plug-In . SVG Version: 6.00 Build 0)  -->
<svg version="1.1" id="Layer_1" xmlns="http://www.w3.org/2000/svg" xmlns:xlink="http://www.w3.org/1999/xlink" x="0px" y="0px"
	 viewBox="0 0 48 59.1" style="enable-background:new 0 0 48 59.1;" xml:space="preserve">
<g>
	<path d="M23.6,59.1c-0.2-0.3-0.5-0.6-0.7-1c-1.5-2.3-3.6-4-6-5.3c-1.9-1-3.8-1.9-5.6-2.9c-3.1-1.8-5.4-4.5-7.1-7.7
		c-0.2-0.3-0.3-0.6-0.5-0.9c0,0,0-0.1-0.1-0.1c-0.7,0.3-1.4,0.7-2.2,1c-0.4,0.2-0.8,0.3-1.1,0C0,42,0,41.6,0,41.1
		c0.6-4.4,1.2-8.8,1.8-13.3c0.1-0.5,0.2-0.9,0.7-1c0.5-0.1,0.8,0.2,1,0.5c2.5,3.4,4.9,6.7,7.4,10.1c0.6,0.9,0.4,1.5-0.7,1.7
		c-0.9,0.2-1.8,0.3-2.7,0.5c-0.6,0.1-1-0.2-1.1-0.7c-0.1-0.5,0.2-0.9,0.8-1c0.5-0.1,1-0.2,1.6-0.3C7,35.1,5.2,32.6,3.3,30
		c-0.5,3.4-0.9,6.7-1.4,10.1c0.5-0.2,1-0.5,1.4-0.7C4.3,39,4.6,39.1,5,40c1,2.2,2.3,4.1,3.9,5.8c1.6,1.6,3.5,2.8,5.4,3.8
		c1.7,0.9,3.4,1.7,5,2.7c1.8,1.1,3.2,2.5,4.5,4.2c0.1,0,0.1,0,0.2-0.1c1.9-2.7,4.5-4.4,7.4-5.8c2-1,4-1.9,5.8-3.3
		c2.4-1.9,4.1-4.2,5.4-6.9c0.8-1.5,0.8-1.5,2.3-0.8c0.3,0.1,0.6,0.3,1,0.5c-0.5-3.4-0.9-6.7-1.3-10.1c-1.9,2.6-3.7,5.1-5.6,7.7
		c0.6,0.1,1.1,0.2,1.5,0.3c0.8,0.2,1.1,0.7,0.7,1.5c-1.2,2-2.9,3.5-4.9,4.8c-2.2,1.4-4.5,2.3-7,3c-1.8,0.4-3.4-0.8-3.4-2.6
		c0-5.9,0-11.7,0-17.6c0-0.6,0.3-1,0.8-1c0.5,0,0.9,0.4,0.9,1c0,3.2,0,6.5,0,9.7c0,2.6,0,5.1,0,7.7c0,0.9,0.5,1.3,1.4,1.1
		c3.5-0.9,6.7-2.4,9.3-5c0.2-0.2,0.4-0.4,0.6-0.7c0.1-0.1,0.1-0.2,0.3-0.4c-0.6-0.1-1.1-0.2-1.6-0.3c-0.8-0.2-1.1-0.8-0.6-1.5
		c2.5-3.5,5.1-6.9,7.6-10.4c0.2-0.4,0.6-0.6,1-0.4c0.3,0.1,0.6,0.5,0.6,0.8c0.6,4.5,1.2,9.1,1.8,13.7c0.1,0.8-0.5,1.3-1.3,1
		c-0.8-0.3-1.6-0.7-2.4-1.1c-0.3,0.5-0.5,0.9-0.8,1.4c-2.1,3.8-5.1,6.6-9,8.5c-1.7,0.9-3.5,1.8-5.1,2.7c-1.9,1.1-3.3,2.6-4.5,4.5
		c-0.2,0.3-0.4,0.6-0.7,0.8C24.1,59.1,23.9,59.1,23.6,59.1z"/>
	<path d="M24.9,0c0.3,0.1,0.5,0.2,0.8,0.2c3,0.9,4.9,2.8,5.5,5.9c0.5,3-0.6,5.5-3.1,7.3c-0.3,0.2-0.5,0.4-0.4,0.8c0,0.5,0,0.9,0,1.5
		c1.4,0,2.7,0,4,0c0.1,0,0.3-0.1,0.4-0.2c1.6-1.1,3.6-0.8,4.8,0.6c1.2,1.4,1.2,3.4,0,4.8c-1.2,1.4-3.3,1.6-4.8,0.6
		c-0.2-0.1-0.5-0.2-0.8-0.3c-1.2,0-2.4,0-3.6,0c0,0.4,0,0.8,0,1.2c0,0.2,0,0.5,0,0.8c-0.1,0.5-0.4,0.8-0.9,0.8
		c-0.5,0-0.8-0.3-0.8-0.8c0-0.6,0-1.3,0-1.9c0-1,0.7-1.7,1.7-1.7c1.5,0,2.9,0,4.4,0c0.3,0,0.6,0.2,0.8,0.4c0.9,0.7,2,0.7,2.7,0
		c0.7-0.8,0.7-1.9,0-2.6c-0.8-0.8-1.8-0.8-2.7,0c-0.2,0.2-0.6,0.4-0.9,0.4c-1.4,0-2.8,0-4.2,0c-1.1,0-1.8-0.7-1.8-1.8
		c0-0.6,0-1.1,0-1.7c0-0.8,0.3-1.4,1-1.9c1.6-1,2.5-2.5,2.7-4.4c0.3-2.9-2-5.6-5-5.9c-2.9-0.3-5.8,1.9-6.1,4.8
		c-0.3,2.4,0.6,4.3,2.6,5.6c0.7,0.5,1.1,1.1,1,1.9c0,0.6,0,1.1,0,1.7c0,1.1-0.8,1.8-1.8,1.8c-1.4,0-2.8,0-4.2,0
		c-0.3,0-0.7-0.2-1-0.4c-0.6-0.5-1.3-0.6-2-0.3C12.4,17,12,17.6,12,18.4c0,0.8,0.3,1.4,1,1.8s1.5,0.2,2.2-0.2
		c0.3-0.2,0.8-0.4,1.2-0.4c1.3,0,2.5,0,3.8,0c1.3,0,2,0.7,2,2c0,7.6,0,15.3,0,22.9c0,2.1-1.6,3.3-3.6,2.8c-3-0.8-5.9-2-8.3-4
		C10,43,9.8,42.9,9.6,42.7c-0.4-0.4-0.4-0.8-0.1-1.2c0.3-0.4,0.8-0.4,1.2-0.1c0.8,0.6,1.6,1.2,2.4,1.7c1.8,1.1,3.8,1.8,5.8,2.3
		c0.9,0.2,1.5-0.2,1.5-1.2c0-7.5,0-15.1,0-22.6c0-0.1,0-0.3,0-0.5c-1,0-1.9,0-2.9,0c-0.7,0-1.3,0.1-1.9,0.5
		c-1.5,0.9-3.5,0.5-4.6-0.9c-1.1-1.4-1.1-3.4,0.1-4.7c1.2-1.4,3.1-1.6,4.7-0.7c0.3,0.2,0.8,0.3,1.2,0.3c1.1,0,2.2,0,3.4,0
		c0-0.6,0-1.2,0-1.8c0-0.1-0.1-0.3-0.3-0.4c-2.7-1.9-3.9-4.5-3.2-7.7c0.7-3.2,2.8-5.1,6.1-5.8c0,0,0.1-0.1,0.1-0.1
		C23.7,0,24.3,0,24.9,0z"/>
	<path d="M24,11c-2,0-3.6-1.6-3.6-3.6c0-2,1.6-3.6,3.6-3.6c2,0,3.7,1.7,3.6,3.7C27.6,9.4,26,11,24,11z M24,9.2
		c1.1,0,1.9-0.8,1.9-1.9c0-1-0.9-1.9-1.9-1.9c-1,0-1.9,0.9-1.9,1.9C22.1,8.4,22.9,9.2,24,9.2z"/>
</g>
</svg>
