<?xml version="1.0" encoding="utf-8"?>
<!-- Generator: Adobe Illustrator 27.3.1, SVG Export Plug-In . SVG Version: 6.00 Build 0)  -->
<svg version="1.1" id="Layer_1" xmlns="http://www.w3.org/2000/svg" xmlns:xlink="http://www.w3.org/1999/xlink" x="0px" y="0px"
	 viewBox="0 0 48 48" style="enable-background:new 0 0 48 48;" xml:space="preserve">
<style type="text/css">
	.st0{fill:#FFFFFF;}
</style>
<g>
	<path class="st0" d="M5.4,31.6c-1.1,0-1.8,0.3-2.6,1c-0.5,0.5-1,1-1.8,1c-0.5,0-0.8,0.4-0.7,0.9c0,0.4,0.4,0.7,0.9,0.7
		c0.6,0,1.2-0.2,1.7-0.5c0.3-0.2,0.6-0.5,0.9-0.8c1-0.9,1.9-0.9,2.8,0C6.9,34,7,34.2,7.2,34.3c1.4,1.2,3.2,1.2,4.6,0
		c0.2-0.2,0.3-0.3,0.5-0.5c0.9-0.9,1.8-0.9,2.7,0c0.2,0.2,0.3,0.3,0.5,0.5c1.4,1.2,3.2,1.2,4.6,0c0.3-0.2,0.5-0.5,0.8-0.8
		c0.6-0.5,1.4-0.5,2.1,0c0.3,0.2,0.5,0.5,0.8,0.7c0.5,0.3,1,0.7,1.5,0.8c1.4,0.4,2.5,0,3.5-1.1c0.6-0.7,1.4-1,2.3-0.7
		c0.5,0.1,0.9-0.1,1-0.6c0.1-0.4-0.1-0.8-0.6-0.9c-1.1-0.4-2.1-0.3-3,0.4c-0.4,0.3-0.7,0.6-1.1,0.9c-0.8,0.7-1.6,0.7-2.4,0
		c-0.2-0.2-0.4-0.4-0.7-0.6c-1.3-1.2-3-1.3-4.4-0.2c-0.3,0.2-0.6,0.5-0.8,0.8c-0.8,0.7-1.7,0.8-2.6,0c-0.2-0.2-0.4-0.4-0.6-0.6
		c-1.4-1.2-3.2-1.2-4.6,0c-0.2,0.2-0.4,0.4-0.6,0.6c-0.8,0.7-1.6,0.7-2.4,0c-0.2-0.2-0.4-0.4-0.7-0.6C7,31.9,6.2,31.6,5.4,31.6z
		 M42.9,35.2c1,0,1.8-0.4,2.5-1c0.5-0.5,1-0.9,1.8-1c0.5,0,0.7-0.4,0.7-0.8c0-0.4-0.4-0.7-0.8-0.7c-0.6,0-1.2,0.1-1.7,0.5
		c-0.5,0.3-0.9,0.8-1.3,1.1c-0.6,0.5-1.5,0.5-2.1,0c-0.3-0.2-0.5-0.5-0.8-0.7c-1.1-1-2.7-1.2-3.9-0.5c-0.5,0.3-0.9,0.7-1.3,1
		c-0.8,0.7-1.4,0.8-2.3,0.4c-0.5-0.2-1-0.1-1.2,0.3c-0.2,0.4-0.1,0.8,0.4,1.1c1.2,0.6,2.4,0.6,3.5-0.1c0.4-0.2,0.7-0.5,1-0.8
		c0.9-0.8,1.8-0.8,2.7,0c0.2,0.2,0.4,0.3,0.5,0.5C41.2,34.8,42,35.2,42.9,35.2z M38.8,22C38.8,22,38.8,22,38.8,22
		c0.4,0,0.8,0.1,1.2,0c0.4,0,0.7-0.3,0.7-0.8c0-0.4-0.2-0.7-0.7-0.8c-0.8,0-1.5-0.1-2.3-0.1c-0.5,0-0.8,0.4-0.8,0.8
		c0,0.4,0.3,0.7,0.8,0.8C38.1,22,38.5,22,38.8,22z"/>
	<path d="M0,23.2c0.2-0.4,0.5-0.6,0.9-0.7c1.6-0.3,3.1-0.6,4.7-1c-0.2-1-0.3-2-0.5-3c-0.2,0.1-0.4,0.1-0.5,0.2
		c-0.6,0.2-1.1,0.1-1.3-0.4c-0.2-0.5,0.1-0.9,0.7-1.1c1.7-0.6,3.4-1.2,5.2-1.7c3.8-1.1,7.6-2,11.6-2.5c2.3-0.3,4.6-0.4,6.9-0.1
		c0.3,0,0.5,0.2,0.8,0.4c1.8,1.4,3.5,2.9,5.3,4.3c0.2,0.2,0.5,0.3,0.8,0.3c2.7,0.1,5.3,0,8,0.2c1.6,0.1,3.2,0.5,4.7,0.8
		c0.4,0.1,0.7,0.3,0.7,0.7c0,0.3-0.2,0.6-0.3,0.7c-0.3,0.1-0.6,0.1-1.1,0.2c-1.5,2.5-3.3,4.9-5.5,7c0.2,0.2,0.4,0.4,0.6,0.5
		c0.8,0.8,1.7,0.8,2.6,0c0.4-0.3,0.7-0.6,1.1-0.9c0.5-0.4,1.1-0.5,1.7-0.5c0.5,0,0.8,0.3,0.9,0.7c0,0.4-0.2,0.8-0.7,0.8
		c-0.8,0-1.4,0.6-1.9,1.1c-1.1,1-2.7,1.3-3.9,0.5c-0.5-0.3-0.9-0.7-1.3-1.1c-0.5-0.4-1-0.6-1.6-0.5c-0.4,0.1-0.8,0.4-1.1,0.6
		c-0.6,0.5-1.1,1-1.9,1.2c-1.2,0.3-2.2,0-3.1-0.8c-0.2-0.2-0.5-0.4-0.7-0.6c-0.8-0.7-1.7-0.7-2.5,0c-0.2,0.2-0.4,0.4-0.6,0.5
		c-1.5,1.3-3.3,1.3-4.7,0c-0.2-0.2-0.3-0.3-0.5-0.5c-0.8-0.7-1.7-0.8-2.6,0c-0.3,0.3-0.6,0.6-1,0.8c-1.4,1-3.2,0.8-4.4-0.4
		c-0.3-0.4-0.4-0.8-0.1-1.1c0.3-0.3,0.7-0.3,1.1,0c0.2,0.2,0.4,0.4,0.7,0.5c0.6,0.3,1.2,0.2,1.7-0.2c0.3-0.2,0.5-0.5,0.8-0.7
		c1.4-1.3,3.3-1.3,4.7,0c0.2,0.2,0.4,0.3,0.5,0.5c0.8,0.7,1.7,0.7,2.5,0c0.2-0.2,0.4-0.4,0.7-0.6c1.4-1.2,3.1-1.2,4.5,0
		c0.3,0.2,0.5,0.5,0.8,0.7c0.7,0.6,1.5,0.5,2.2,0c0.2-0.2,0.4-0.4,0.6-0.5c0.8-0.8,1.8-1.2,3-1c0.2,0,0.4,0,0.5-0.1
		c2.1-1.9,3.8-4.1,5.3-6.6c-0.9-0.1-1.8-0.2-2.7-0.3c-4.8-0.4-9.6-0.2-14.4,0.2c-5.5,0.5-11,1.3-16.5,2.2c-0.1,0-0.1,0-0.1,0
		c-0.7,0.1-1.1-0.1-1.1-0.6c-0.1-0.5,0.2-0.9,0.9-1c2.4-0.4,4.8-0.8,7.2-1.1c0.1,0,0.1,0,0.3-0.1c-0.5-1.4-0.9-2.8-1.4-4.1
		c-3.6,0.7-7.1,1.6-10.6,2.8c0.2,1.1,0.4,2.2,0.6,3.3c0.3,0,0.5-0.1,0.7-0.1c0.6-0.1,1,0.1,1,0.6c0.1,0.5-0.2,0.9-0.8,1
		c-1.3,0.3-2.6,0.5-4,0.8c-0.8,0.1-1.5,0.3-2.4,0.5c0.4,1.2,0.7,2.4,1.1,3.6c0.6-0.5,1.2-0.9,2-1c1-0.1,1.9,0.2,2.7,0.9
		c0.2,0.2,0.5,0.5,0.8,0.7c0.7,0.6,1.6,0.6,2.3,0c0.4-0.4,0.8-0.7,1.2-1.1c0.5-0.4,1.1-0.5,1.8-0.5c0.4,0,0.8,0.3,0.8,0.7
		c0,0.4-0.2,0.8-0.7,0.8c-0.9,0-1.4,0.6-1.9,1.1c-0.9,0.8-2,1.2-3.1,0.9c-0.5-0.1-1.1-0.4-1.5-0.8c-1.4-1.4-2.4-1.4-3.8,0
		c-0.6,0.6-1.3,0.9-2.1,0.9c-0.6,0-0.9-0.2-1-0.7c-0.1-0.5,0.2-0.8,0.9-0.9c0.1,0,0.2,0,0.3-0.1c0-0.2-0.1-0.3-0.1-0.5
		c-0.4-1.4-0.8-2.7-1.2-4.1c0-0.1-0.1-0.3-0.2-0.4C0,23.5,0,23.4,0,23.2z M20.2,19.1c3.8-0.4,7.6-0.8,11.4-1.2
		c-0.1-0.1-0.2-0.2-0.3-0.2c-1.2-1-2.4-2-3.7-3c-0.2-0.1-0.4-0.2-0.6-0.2c-2-0.2-4-0.1-6,0.2c-0.8,0.1-1.5,0.2-2.2,0.3
		C19.3,16.4,19.7,17.8,20.2,19.1z"/>
	<path d="M5.4,31.6c0.8,0,1.6,0.3,2.2,0.9c0.2,0.2,0.4,0.4,0.7,0.6c0.8,0.7,1.6,0.6,2.4,0c0.2-0.2,0.4-0.4,0.6-0.6
		c1.4-1.2,3.2-1.2,4.6,0c0.2,0.2,0.4,0.4,0.6,0.6c0.8,0.7,1.7,0.7,2.6,0c0.3-0.2,0.5-0.5,0.8-0.8c1.4-1,3.1-1,4.4,0.2
		c0.2,0.2,0.4,0.4,0.7,0.6c0.8,0.7,1.6,0.6,2.4,0c0.4-0.3,0.7-0.6,1.1-0.9c0.9-0.7,2-0.8,3-0.4c0.5,0.1,0.7,0.5,0.6,0.9
		c-0.1,0.4-0.5,0.7-1,0.6c-0.9-0.3-1.7,0-2.3,0.7c-1,1-2.1,1.5-3.5,1.1c-0.5-0.2-1-0.5-1.5-0.8c-0.3-0.2-0.5-0.5-0.8-0.7
		c-0.6-0.5-1.4-0.5-2.1,0c-0.3,0.2-0.6,0.5-0.8,0.8c-1.4,1.2-3.2,1.2-4.6,0c-0.2-0.2-0.3-0.3-0.5-0.5c-0.9-0.8-1.8-0.8-2.7,0
		c-0.2,0.2-0.3,0.3-0.5,0.5c-1.4,1.2-3.2,1.2-4.6,0C7,34.1,6.9,34,6.7,33.9c-1-0.9-1.8-0.9-2.8,0c-0.3,0.3-0.6,0.5-0.9,0.8
		c-0.5,0.4-1.1,0.5-1.7,0.5c-0.5,0-0.9-0.2-0.9-0.7c-0.1-0.5,0.2-0.8,0.7-0.9c0.8-0.1,1.3-0.5,1.8-1C3.7,31.9,4.4,31.6,5.4,31.6z"/>
	<path d="M42.9,35.2c-0.9,0-1.6-0.3-2.3-0.9c-0.2-0.2-0.4-0.3-0.5-0.5c-0.9-0.8-1.8-0.8-2.7,0c-0.3,0.3-0.6,0.6-1,0.8
		c-1.1,0.8-2.3,0.8-3.5,0.1c-0.5-0.3-0.6-0.7-0.4-1.1c0.2-0.4,0.6-0.5,1.2-0.3c0.9,0.4,1.5,0.3,2.3-0.4c0.4-0.4,0.8-0.8,1.3-1
		c1.2-0.7,2.7-0.5,3.9,0.5c0.3,0.2,0.5,0.5,0.8,0.7c0.6,0.5,1.5,0.5,2.1,0c0.5-0.4,0.9-0.8,1.3-1.1c0.5-0.4,1.1-0.5,1.7-0.5
		c0.5,0,0.8,0.3,0.8,0.7c0,0.4-0.2,0.8-0.7,0.8c-0.8,0-1.3,0.5-1.8,1C44.7,34.8,43.9,35.2,42.9,35.2z"/>
	<path d="M38.8,22c-0.3,0-0.7,0-1,0c-0.5,0-0.8-0.3-0.8-0.8c0-0.4,0.3-0.8,0.8-0.8c0.8,0,1.5,0,2.3,0.1c0.4,0,0.7,0.4,0.7,0.8
		c0,0.4-0.2,0.7-0.7,0.8C39.6,22.1,39.2,22,38.8,22C38.8,22,38.8,22,38.8,22z"/>
</g>
</svg>
