<?xml version="1.0" encoding="utf-8"?>
<!-- Generator: Adobe Illustrator 27.3.1, SVG Export Plug-In . SVG Version: 6.00 Build 0)  -->
<svg version="1.1" id="Layer_1" xmlns="http://www.w3.org/2000/svg" xmlns:xlink="http://www.w3.org/1999/xlink" x="0px" y="0px"
	 viewBox="0 0 48 48" style="enable-background:new 0 0 48 48;" xml:space="preserve">
<g>
	<path d="M43.4,48c-1.1-0.3-1.9-0.9-2.1-2c-0.1-0.8-0.1-1.7-0.1-2.6c0-0.5,0.7-0.8,1.1-0.5c0.3,0.3,0.7,0.6,1,1
		c0.3,0.4,0.1,0.9-0.6,1.2c-0.2,1.1,0.8,1.7,1.5,1.4c0.5-0.2,0.7-0.6,0.7-1c0-1.1,0-2.2,0-3.2c0-0.1-0.1-0.3-0.3-0.4
		c-0.8-0.4-1.2-1.1-1.2-2s0.4-1.6,1.2-2c0.3-0.2,0.3-0.4,0.3-0.6c0-8,0-15.9,0-23.9c0-1.1,0-2.3,0-3.6c-1.8,2.2-4.1,2.7-6.8,2.5
		c0,0.6,0,1.1,0,1.6c0,1.7-0.6,3.3-1.8,4.6c-1.3,1.4-2.9,2.1-4.8,2.2c-0.5,0-1.1,0-1.6,0c0,0.8,0,1.6-0.1,2.4
		c-0.4,3.2-3.2,5.8-6.5,5.8c-0.3,0-0.6,0-1,0c1.8,2.2,2,4.5,0.5,6.9c0.3,0.3,0.7,0.6,1.1,1.1c0.2-0.3,0.5-0.6,0.8-0.9
		c0.4-0.4,0.8-0.4,1.1-0.1c0.3,0.3,0.3,0.8-0.1,1.2c-0.9,0.9-1.9,1.9-2.8,2.8c-0.4,0.4-0.8,0.4-1.2,0.1c-0.3-0.3-0.3-0.8,0.1-1.2
		c0.2-0.3,0.5-0.5,0.8-0.8c0,0,0-0.1,0-0.1c-0.3-0.3-0.7-0.6-1-1c-2.1,1.4-4.2,1.3-6.5-0.2c-0.1,0.1-0.1,0.3-0.2,0.4
		c-2.9,2.9-5.7,5.8-8.6,8.6c-1.9,1.9-5,1.4-6.1-0.9c-0.2-0.4-0.3-0.8-0.4-1.3c0-0.2,0-0.4,0-0.7c0.2-1.3,1-2.2,1.9-3.1
		c3.5-3.4,6.9-6.9,10.4-10.4c0.7-0.7,1.5-1,2.5-0.7c0.1,0,0.4-0.1,0.5-0.2c3.5-3.5,7.1-7.1,10.6-10.6C31.5,12,37,6.4,42.6,0.8
		C43,0.5,43.5,0.3,43.9,0c0.3,0,0.6,0,0.9,0c0.1,0.1,0.3,0.1,0.4,0.2c1,0.4,1.5,1.5,1.3,2.5c0,0.3-0.1,0.5-0.1,0.8
		c0,11.2,0,22.3,0,33.5c0,0.1,0,0.2,0,0.4c0,0.1,0.1,0.2,0.1,0.3c0.8,0.4,1.2,1,1.4,1.9c0,0.2,0,0.3,0,0.5c-0.2,0.7-0.5,1.4-1.2,1.7
		c-0.3,0.1-0.3,0.3-0.3,0.6c0,1,0,2,0,3c0,1.1-0.5,1.9-1.5,2.5c-0.2,0.1-0.4,0.2-0.6,0.3C44,48,43.7,48,43.4,48z M14.1,29.8
		c0,0-0.1-0.1-0.1-0.1c-0.2,0.2-0.5,0.3-0.8,0.5c-3.5,3.5-7.1,7-10.6,10.6c-0.2,0.2-0.4,0.4-0.6,0.6C1,42.7,1.6,44.6,3.2,45
		c0.9,0.2,1.6,0,2.3-0.7c2.9-2.9,5.9-5.8,8.8-8.8c0.1-0.1,0.1-0.2,0.2-0.2C13.3,33.5,13.2,31.7,14.1,29.8z M18.5,27.1
		c0.5,0.1,0.9,0.1,1.4,0.2c0.3,0.1,0.5,0,0.8-0.2c8-8,16-16,24-24C45,2.7,45.1,2,44.8,1.7c-0.3-0.3-0.8-0.2-1.2,0.3
		c-8.2,8.2-16.5,16.5-24.8,24.8C18.8,26.8,18.6,26.9,18.5,27.1z M20.9,35.4c-0.3-0.3-0.6-0.5-0.9-0.8c-0.2-0.2-0.4-0.3-0.7-0.2
		c-0.9,0.2-1.6,0-2.2-0.7s-0.7-1.5-0.4-2.3c0.4-1.1,1.7-1.7,2.8-1.3c1.1,0.4,1.7,1.6,1.5,2.7c0,0.2-0.1,0.4,0,0.5
		c0.3,0.3,0.6,0.7,0.9,1c1.1-1.4,0.8-3.6-0.6-4.8c-1.5-1.3-3.7-1.2-5.1,0.1c-1.4,1.4-1.5,3.6-0.2,5.1C17.1,36.2,19.4,36.5,20.9,35.4
		z M45,5c-1.9,1.9-3.7,3.7-5.6,5.6C42.1,11,45.2,8.5,45,5z M28.5,21.6c-1.8,1.8-3.7,3.7-5.5,5.5C26.1,27.3,28.8,24.6,28.5,21.6z
		 M31.1,18.8c3.3,0.3,6-2.7,5.6-5.6C34.8,15.1,33,17,31.1,18.8z M19.5,32.3c0-0.4-0.3-0.8-0.7-0.8S18,31.9,18,32.2
		c0,0.4,0.3,0.8,0.7,0.8C19.1,33,19.5,32.7,19.5,32.3z M46.5,39.8c0-0.4-0.3-0.8-0.7-0.8c-0.4,0-0.7,0.3-0.8,0.7
		c0,0.4,0.3,0.8,0.7,0.8C46.1,40.5,46.5,40.2,46.5,39.8z"/>
</g>
</svg>
