<svg width="0" height="0" class="hidden">
  <symbol id="anchor"  x="0px" y="0px" xml:space="preserve" viewBox="0 0 48 59.13">
    
      <path d="M23.97,10.98c2.01,0.01,3.63-1.58,3.66-3.6c0.03-2.01-1.63-3.68-3.64-3.68c-1.99,0-3.63,1.64-3.63,3.64
		C20.35,9.34,21.97,10.97,23.97,10.98z"></path>
      <path d="M23.65,59.13c-0.24-0.31-0.51-0.61-0.72-0.95c-1.51-2.34-3.57-4.05-6.03-5.33c-1.86-0.96-3.75-1.88-5.55-2.94
		c-3.13-1.85-5.4-4.53-7.12-7.7c-0.16-0.29-0.31-0.58-0.46-0.86c-0.02-0.03-0.05-0.06-0.12-0.13c-0.7,0.34-1.43,0.68-2.15,1.03
		c-0.38,0.18-0.75,0.33-1.14,0.04c-0.4-0.29-0.39-0.7-0.33-1.14c0.6-4.42,1.19-8.84,1.77-13.27c0.06-0.47,0.17-0.88,0.7-1
		c0.49-0.12,0.79,0.16,1.05,0.52c2.46,3.37,4.92,6.74,7.38,10.12c0.64,0.87,0.39,1.45-0.69,1.65c-0.89,0.17-1.78,0.32-2.67,0.47
		c-0.57,0.09-0.99-0.18-1.1-0.67c-0.1-0.48,0.2-0.88,0.78-1.01c0.5-0.11,1.01-0.19,1.62-0.31c-1.87-2.56-3.69-5.06-5.61-7.69
		c-0.46,3.45-0.9,6.74-1.35,10.14c0.53-0.25,0.98-0.46,1.43-0.68c0.93-0.45,1.24-0.35,1.69,0.57c1.03,2.15,2.28,4.14,3.95,5.85
		c1.58,1.62,3.46,2.8,5.45,3.83c1.69,0.87,3.39,1.72,5.03,2.69c1.79,1.06,3.25,2.51,4.46,4.22c0.07-0.03,0.14-0.04,0.17-0.08
		c1.9-2.69,4.54-4.44,7.45-5.85c2.01-0.97,4.02-1.94,5.79-3.33c2.36-1.86,4.07-4.23,5.39-6.9c0.75-1.52,0.8-1.54,2.35-0.8
		c0.29,0.14,0.59,0.28,0.99,0.47c-0.45-3.37-0.89-6.67-1.35-10.14c-1.92,2.63-3.74,5.12-5.61,7.69c0.57,0.11,1.06,0.18,1.55,0.29
		c0.85,0.18,1.11,0.74,0.65,1.49c-1.22,2.02-2.94,3.54-4.9,4.81c-2.17,1.41-4.54,2.34-7.04,2.95c-1.82,0.44-3.43-0.76-3.44-2.63
		c-0.03-5.87-0.01-11.74-0.01-17.61c0-0.65,0.32-1.01,0.84-1.02c0.54-0.01,0.88,0.37,0.88,1.05c0.01,3.23,0,6.47,0,9.7
		c0,2.56,0,5.12,0,7.68c0,0.91,0.5,1.34,1.37,1.13c3.53-0.89,6.73-2.39,9.31-5.04c0.2-0.21,0.39-0.43,0.58-0.65
		c0.07-0.09,0.14-0.18,0.27-0.36c-0.58-0.11-1.09-0.2-1.6-0.3c-0.84-0.17-1.12-0.79-0.62-1.48c2.52-3.47,5.06-6.93,7.58-10.4
		c0.25-0.35,0.62-0.56,0.99-0.35c0.27,0.15,0.57,0.5,0.61,0.8c0.64,4.55,1.24,9.11,1.85,13.66c0.11,0.81-0.55,1.29-1.29,0.96
		c-0.79-0.35-1.56-0.74-2.38-1.14c-0.26,0.47-0.5,0.92-0.75,1.37c-2.1,3.78-5.1,6.6-8.97,8.53c-1.74,0.86-3.47,1.75-5.14,2.73
		c-1.85,1.09-3.3,2.63-4.45,4.45c-0.19,0.3-0.44,0.57-0.66,0.85C24.11,59.13,23.88,59.13,23.65,59.13z"></path>
      <path d="M24.92,0c0.27,0.08,0.55,0.15,0.82,0.23c3.01,0.87,4.94,2.84,5.48,5.92c0.53,3.04-0.62,5.51-3.15,7.3
		c-0.3,0.21-0.45,0.42-0.42,0.79c0.03,0.47,0.01,0.95,0.01,1.49c1.38,0,2.71,0.01,4.03-0.01c0.15,0,0.3-0.15,0.44-0.24
		c1.57-1.05,3.58-0.8,4.81,0.6c1.2,1.37,1.19,3.44-0.02,4.8c-1.23,1.39-3.26,1.61-4.82,0.56c-0.22-0.15-0.52-0.25-0.79-0.26
		c-1.19-0.03-2.38-0.01-3.65-0.01c0,0.44,0,0.82,0,1.19c0,0.25,0.01,0.5-0.02,0.75c-0.06,0.53-0.38,0.83-0.86,0.82
		c-0.48,0-0.82-0.31-0.84-0.84c-0.03-0.63-0.03-1.27,0-1.9c0.04-0.99,0.73-1.71,1.73-1.74c1.46-0.04,2.93-0.03,4.39,0
		c0.27,0.01,0.58,0.18,0.81,0.37c0.87,0.72,1.97,0.72,2.7-0.04c0.73-0.75,0.72-1.91,0-2.65c-0.75-0.77-1.81-0.76-2.7-0.04
		c-0.25,0.2-0.61,0.35-0.92,0.36c-1.38,0.04-2.77,0.03-4.16,0.01c-1.09-0.01-1.8-0.71-1.84-1.79c-0.02-0.56,0.01-1.12-0.01-1.67
		c-0.03-0.83,0.31-1.43,1.02-1.87c1.62-1.02,2.5-2.51,2.67-4.42c0.26-2.88-2.05-5.6-5.04-5.95c-2.91-0.33-5.76,1.89-6.1,4.76
		c-0.29,2.39,0.59,4.26,2.59,5.58c0.71,0.47,1.08,1.06,1.04,1.91c-0.02,0.56,0.01,1.12-0.01,1.67c-0.05,1.06-0.76,1.76-1.81,1.77
		c-1.4,0.02-2.81,0.03-4.21-0.02c-0.34-0.01-0.71-0.23-1-0.44c-0.63-0.45-1.28-0.6-2-0.28c-0.71,0.32-1.11,0.9-1.14,1.67
		c-0.03,0.77,0.33,1.37,1.02,1.75c0.69,0.38,1.49,0.23,2.16-0.25c0.33-0.24,0.78-0.42,1.18-0.44c1.27-0.05,2.54-0.03,3.81-0.02
		c1.29,0.01,2,0.72,2,2.01c0.01,7.64,0.01,15.28,0,22.92c0,2.12-1.57,3.3-3.65,2.78c-3.04-0.76-5.85-2.01-8.32-3.95
		c-0.18-0.14-0.36-0.29-0.53-0.44c-0.4-0.38-0.45-0.85-0.12-1.23c0.31-0.36,0.8-0.39,1.24-0.08c0.8,0.57,1.57,1.19,2.4,1.7
		c1.8,1.11,3.76,1.83,5.8,2.35c0.93,0.24,1.45-0.17,1.45-1.15c0-7.54,0-15.09,0-22.63c0-0.15-0.02-0.3-0.04-0.54
		c-0.97,0-1.93,0.02-2.89-0.01c-0.68-0.01-1.27,0.08-1.9,0.46c-1.5,0.92-3.47,0.48-4.56-0.9c-1.1-1.39-1.05-3.36,0.12-4.67
		c1.21-1.36,3.13-1.62,4.67-0.68c0.34,0.2,0.77,0.32,1.16,0.34c1.11,0.04,2.23,0.02,3.42,0.02c0-0.63,0.02-1.22-0.01-1.81
		c-0.01-0.14-0.15-0.3-0.28-0.39c-2.7-1.89-3.89-4.47-3.21-7.69c0.68-3.25,2.82-5.14,6.08-5.76c0.05-0.01,0.1-0.05,0.15-0.08
		C23.69,0,24.3,0,24.92,0z"></path>
      <path d="M23.97,10.98c-2-0.01-3.62-1.64-3.62-3.64c0.01-2,1.64-3.63,3.63-3.64c2.02,0,3.67,1.67,3.64,3.68
		C27.61,9.4,25.99,10.99,23.97,10.98z M23.99,9.25c1.06,0,1.91-0.84,1.91-1.9c0-1.05-0.86-1.91-1.9-1.92
		c-1.04,0-1.91,0.86-1.91,1.91C22.08,8.39,22.93,9.25,23.99,9.25z"></path>
      <path d="M23.99,9.25c-1.06,0-1.91-0.85-1.9-1.91c0-1.05,0.87-1.91,1.91-1.91c1.04,0,1.91,0.87,1.9,1.92
		C25.9,8.4,25.05,9.25,23.99,9.25z"></path>
    
  </symbol>
  <symbol id="boat"  x="0px" y="0px" xml:space="preserve" viewBox="0 0 48 48">
    
      <path d="M5.42,31.59c-1.06-0.01-1.75,0.27-2.56,1.04c-0.51,0.49-1.02,0.95-1.79,1c-0.52,0.04-0.76,0.4-0.71,0.86
		c0.04,0.44,0.37,0.7,0.9,0.69c0.62-0.01,1.21-0.16,1.71-0.55c0.32-0.25,0.63-0.51,0.93-0.78c0.99-0.91,1.85-0.91,2.84,0.02
		c0.15,0.14,0.29,0.28,0.45,0.41c1.4,1.23,3.18,1.24,4.59,0.02c0.18-0.15,0.34-0.32,0.52-0.48c0.92-0.86,1.82-0.86,2.73-0.02
		c0.17,0.16,0.34,0.32,0.51,0.48c1.4,1.23,3.18,1.24,4.59,0.01c0.28-0.25,0.54-0.52,0.84-0.75c0.65-0.5,1.43-0.5,2.08-0.01
		c0.27,0.21,0.49,0.49,0.78,0.67c0.48,0.31,0.95,0.69,1.48,0.85c1.36,0.4,2.53-0.05,3.48-1.06c0.64-0.68,1.37-0.98,2.31-0.71
		c0.47,0.14,0.86-0.13,0.97-0.56c0.1-0.4-0.13-0.8-0.57-0.94c-1.07-0.35-2.1-0.28-3.03,0.41c-0.37,0.28-0.71,0.61-1.06,0.92
		c-0.77,0.66-1.65,0.66-2.42,0.01c-0.23-0.19-0.43-0.4-0.66-0.6c-1.3-1.17-2.96-1.26-4.36-0.21c-0.3,0.22-0.56,0.5-0.84,0.75
		c-0.84,0.74-1.73,0.75-2.56,0.01c-0.21-0.19-0.41-0.39-0.62-0.57c-1.39-1.22-3.21-1.21-4.59,0.02c-0.22,0.2-0.43,0.41-0.65,0.6
		c-0.77,0.66-1.65,0.66-2.42,0.01c-0.23-0.19-0.43-0.4-0.66-0.6C6.97,31.93,6.23,31.56,5.42,31.59z M42.87,35.17
		c0.99,0.05,1.78-0.38,2.47-1.05c0.51-0.5,1.02-0.94,1.8-0.98c0.45-0.02,0.74-0.44,0.7-0.85c-0.05-0.42-0.38-0.7-0.85-0.71
		c-0.63-0.01-1.22,0.14-1.72,0.52c-0.46,0.35-0.88,0.75-1.33,1.11c-0.64,0.5-1.48,0.5-2.12,0c-0.28-0.22-0.54-0.48-0.8-0.72
		c-1.11-1-2.67-1.24-3.86-0.54c-0.46,0.27-0.87,0.66-1.28,1.02c-0.76,0.67-1.36,0.77-2.27,0.36c-0.52-0.24-0.95-0.13-1.16,0.3
		c-0.21,0.41-0.07,0.84,0.41,1.1c1.18,0.64,2.36,0.64,3.5-0.12c0.36-0.24,0.68-0.55,1-0.85c0.89-0.81,1.79-0.82,2.67-0.01
		c0.18,0.17,0.36,0.34,0.55,0.51C41.23,34.85,41.97,35.21,42.87,35.17z M38.83,22.02c0,0.01,0,0.01,0,0.02
		c0.4,0,0.81,0.03,1.21-0.01c0.43-0.04,0.66-0.33,0.68-0.76c0.01-0.4-0.25-0.74-0.66-0.76c-0.76-0.05-1.52-0.08-2.29-0.06
		c-0.46,0.01-0.76,0.38-0.75,0.8c0.01,0.43,0.32,0.74,0.78,0.77C38.14,22.04,38.49,22.02,38.83,22.02z"></path>
      <path d="M0,23.24c0.16-0.4,0.47-0.58,0.89-0.67C2.45,22.26,4,21.94,5.62,21.6c-0.16-0.99-0.32-1.97-0.5-3.02
		c-0.2,0.07-0.37,0.12-0.54,0.18c-0.64,0.23-1.1,0.11-1.27-0.35c-0.19-0.5,0.06-0.91,0.73-1.14c1.71-0.58,3.42-1.19,5.15-1.71
		c3.79-1.13,7.64-2.01,11.57-2.49c2.3-0.28,4.61-0.37,6.92-0.13c0.27,0.03,0.55,0.21,0.77,0.39c1.77,1.42,3.51,2.87,5.28,4.28
		c0.21,0.17,0.52,0.27,0.79,0.28c2.67,0.08,5.35,0.05,8.01,0.23c1.59,0.11,3.16,0.54,4.74,0.83c0.38,0.07,0.71,0.3,0.71,0.7
		c0,0.26-0.15,0.62-0.35,0.74c-0.26,0.15-0.64,0.1-1.11,0.16c-1.49,2.48-3.26,4.95-5.54,7.04c0.22,0.21,0.4,0.38,0.59,0.54
		c0.83,0.75,1.73,0.75,2.56,0.01c0.36-0.32,0.72-0.64,1.11-0.94c0.5-0.38,1.1-0.52,1.72-0.53c0.47,0,0.8,0.28,0.86,0.7
		c0.05,0.4-0.22,0.81-0.69,0.84c-0.85,0.05-1.38,0.59-1.94,1.11c-1.13,1.04-2.69,1.28-3.89,0.55c-0.49-0.29-0.92-0.7-1.34-1.09
		c-0.46-0.42-1-0.64-1.59-0.47c-0.39,0.11-0.76,0.35-1.07,0.61c-0.59,0.49-1.13,1.05-1.9,1.24c-1.18,0.28-2.23,0.04-3.14-0.78
		c-0.23-0.21-0.46-0.43-0.69-0.63c-0.77-0.67-1.68-0.67-2.46,0.01c-0.2,0.17-0.39,0.36-0.59,0.54c-1.45,1.31-3.27,1.31-4.72-0.02
		c-0.17-0.16-0.34-0.32-0.52-0.48c-0.83-0.74-1.74-0.75-2.56-0.01c-0.31,0.28-0.62,0.58-0.96,0.83c-1.38,1-3.22,0.82-4.39-0.41
		c-0.34-0.36-0.37-0.81-0.08-1.14c0.29-0.32,0.74-0.33,1.14-0.04c0.23,0.17,0.44,0.37,0.69,0.48c0.6,0.27,1.2,0.21,1.73-0.19
		c0.29-0.22,0.54-0.47,0.81-0.71c1.43-1.3,3.26-1.29,4.69,0.01c0.19,0.17,0.37,0.34,0.55,0.51c0.81,0.72,1.71,0.73,2.52,0.01
		c0.22-0.2,0.43-0.41,0.66-0.6c1.36-1.19,3.15-1.2,4.52,0c0.27,0.24,0.52,0.5,0.8,0.72c0.68,0.56,1.55,0.55,2.24,0
		c0.21-0.17,0.4-0.35,0.59-0.54c0.83-0.83,1.82-1.18,2.99-1.04c0.16,0.02,0.39-0.02,0.51-0.13c2.11-1.86,3.75-4.09,5.27-6.56
		c-0.93-0.12-1.79-0.25-2.65-0.33c-4.82-0.43-9.62-0.17-14.42,0.25c-5.54,0.49-11.04,1.3-16.53,2.25c-0.05,0.01-0.09,0.01-0.14,0.02
		c-0.66,0.08-1.05-0.13-1.13-0.61c-0.08-0.51,0.24-0.86,0.9-0.97c2.41-0.38,4.81-0.76,7.22-1.14c0.07-0.01,0.15-0.04,0.34-0.1
		c-0.47-1.39-0.93-2.75-1.4-4.13c-3.63,0.7-7.1,1.61-10.56,2.78c0.18,1.09,0.36,2.16,0.55,3.27c0.26-0.04,0.47-0.08,0.68-0.11
		c0.58-0.08,0.97,0.15,1.05,0.61c0.09,0.49-0.2,0.86-0.78,0.97c-1.32,0.26-2.64,0.5-3.96,0.76c-0.76,0.15-1.53,0.32-2.36,0.49
		c0.37,1.21,0.72,2.4,1.1,3.63c0.61-0.51,1.24-0.87,1.99-0.95c1.02-0.1,1.91,0.18,2.67,0.88c0.25,0.23,0.5,0.47,0.76,0.69
		c0.7,0.58,1.57,0.57,2.28-0.01c0.42-0.35,0.82-0.72,1.25-1.06c0.52-0.4,1.13-0.53,1.77-0.51c0.45,0.01,0.75,0.3,0.79,0.71
		c0.04,0.4-0.22,0.8-0.66,0.82c-0.85,0.04-1.39,0.57-1.95,1.1c-0.9,0.84-1.96,1.19-3.15,0.86c-0.54-0.15-1.1-0.43-1.49-0.82
		c-1.42-1.43-2.38-1.43-3.76,0c-0.56,0.58-1.27,0.9-2.09,0.93c-0.58,0.02-0.94-0.23-0.99-0.7c-0.05-0.5,0.24-0.81,0.86-0.89
		c0.09-0.01,0.18-0.03,0.3-0.06c-0.04-0.17-0.07-0.32-0.11-0.46c-0.41-1.36-0.82-2.72-1.23-4.08C0.13,23.95,0.06,23.83,0,23.71
		C0,23.55,0,23.39,0,23.24z M20.18,19.14c3.8-0.39,7.6-0.78,11.43-1.18c-0.09-0.09-0.18-0.17-0.27-0.25c-1.22-1-2.44-2-3.68-2.98
		c-0.17-0.13-0.41-0.23-0.63-0.25c-2-0.17-4-0.05-5.99,0.17c-0.76,0.08-1.5,0.21-2.23,0.32C19.28,16.39,19.73,17.76,20.18,19.14z"></path>
      <path d="M5.42,31.59c0.81-0.02,1.55,0.34,2.2,0.93c0.22,0.2,0.43,0.41,0.66,0.6c0.77,0.65,1.65,0.64,2.42-0.01
		c0.23-0.19,0.43-0.41,0.65-0.6c1.38-1.23,3.19-1.24,4.59-0.02c0.21,0.19,0.41,0.39,0.62,0.57c0.83,0.74,1.73,0.73,2.56-0.01
		c0.28-0.25,0.54-0.52,0.84-0.75c1.41-1.05,3.06-0.96,4.36,0.21c0.22,0.2,0.43,0.41,0.66,0.6c0.77,0.65,1.65,0.64,2.42-0.01
		c0.36-0.3,0.69-0.64,1.06-0.92c0.93-0.69,1.96-0.76,3.03-0.41c0.45,0.14,0.67,0.54,0.57,0.94c-0.11,0.44-0.5,0.7-0.97,0.56
		c-0.94-0.27-1.67,0.02-2.31,0.71c-0.95,1.01-2.12,1.46-3.48,1.06c-0.53-0.16-1.01-0.53-1.48-0.85c-0.28-0.19-0.5-0.47-0.78-0.67
		c-0.65-0.49-1.43-0.49-2.08,0.01c-0.3,0.23-0.56,0.5-0.84,0.75c-1.41,1.23-3.19,1.22-4.59-0.01c-0.18-0.15-0.34-0.32-0.51-0.48
		c-0.91-0.85-1.81-0.84-2.73,0.02c-0.17,0.16-0.34,0.32-0.52,0.48c-1.41,1.22-3.19,1.22-4.59-0.02c-0.15-0.13-0.3-0.28-0.45-0.41
		c-0.99-0.93-1.85-0.93-2.84-0.02c-0.3,0.27-0.61,0.54-0.93,0.78c-0.5,0.39-1.08,0.54-1.71,0.55c-0.53,0.01-0.85-0.25-0.9-0.69
		c-0.05-0.46,0.2-0.82,0.71-0.86c0.77-0.06,1.28-0.51,1.79-1C3.67,31.86,4.36,31.58,5.42,31.59z"></path>
      <path d="M42.87,35.17c-0.9,0.04-1.64-0.32-2.3-0.9c-0.19-0.17-0.37-0.34-0.55-0.51c-0.88-0.81-1.78-0.8-2.67,0.01
		c-0.32,0.29-0.64,0.6-1,0.85c-1.13,0.76-2.31,0.75-3.5,0.12c-0.48-0.26-0.62-0.69-0.41-1.1c0.21-0.42,0.64-0.54,1.16-0.3
		c0.91,0.42,1.51,0.31,2.27-0.36c0.41-0.36,0.81-0.75,1.28-1.02c1.19-0.7,2.74-0.46,3.86,0.54c0.27,0.24,0.52,0.5,0.8,0.72
		c0.64,0.5,1.48,0.5,2.12,0c0.45-0.36,0.87-0.76,1.33-1.11c0.5-0.38,1.09-0.53,1.72-0.52c0.47,0,0.8,0.29,0.85,0.71
		c0.05,0.4-0.24,0.83-0.7,0.85c-0.78,0.04-1.29,0.48-1.8,0.98C44.65,34.79,43.86,35.22,42.87,35.17z"></path>
      <path d="M38.83,22.02c-0.34,0-0.69,0.02-1.03,0c-0.47-0.03-0.77-0.34-0.78-0.77c-0.01-0.42,0.29-0.79,0.75-0.8
		c0.76-0.02,1.53,0.01,2.29,0.06c0.42,0.03,0.68,0.36,0.66,0.76c-0.02,0.43-0.24,0.72-0.68,0.76c-0.4,0.04-0.81,0.01-1.21,0.01
		C38.83,22.04,38.83,22.03,38.83,22.02z"></path>
      <path d="M20.18,19.14c-0.45-1.37-0.9-2.75-1.37-4.18c0.73-0.1,1.48-0.23,2.23-0.32c1.99-0.22,3.99-0.34,5.99-0.17
		c0.22,0.02,0.46,0.11,0.63,0.25c1.23,0.98,2.45,1.99,3.68,2.98c0.09,0.08,0.18,0.16,0.27,0.25C27.78,18.35,23.98,18.75,20.18,19.14
		z"></path>
    
  </symbol>
  <symbol id="coral"  x="0px" y="0px" xml:space="preserve" viewBox="0 0 48 48.64">
    
      <path d="M42.55,42.36c0.1,0.08,0.21,0.16,0.31,0.24c0.75,0.58,1.73,0.6,2.49,0.07c0.75-0.53,1.06-1.5,0.76-2.37
		c-0.3-0.86-1.13-1.42-2.07-1.39c-0.9,0.03-1.67,0.69-1.91,1.6c-0.18,0.66,0.07,1.23,0.36,1.79c-1.03-0.97-1.84-0.15-2.66,0.39
		c-0.65-0.76-1.03-1.56-0.86-2.57c0.1-0.55,0.12-1.12,0.11-1.68c-0.01-0.58,0.21-1.01,0.68-1.29c0.51-0.31,1.05-0.55,1.58-0.82
		c0.75-0.38,1.53-0.71,2.25-1.14c0.62-0.38,1.04-0.97,1.2-1.7c0.11-0.49-0.13-0.91-0.61-1.03c-0.26-0.07-0.58-0.11-0.82-0.03
		c-0.81,0.26-1.61,0.58-2.41,0.88c-0.31,0.11-0.63,0.22-0.95,0.33c-0.04-0.04-0.07-0.09-0.11-0.13c0.11-0.23,0.19-0.47,0.32-0.68
		c1.39-2.28,2.67-4.6,3.3-7.22c0.17-0.72,0.25-1.44-0.15-2.12c-0.64-1.08-1.68-1.11-2.26,0c-0.35,0.67-0.53,1.42-0.8,2.12
		c-0.13,0.33-0.28,0.65-0.47,1.09c-0.18-0.54-0.28-0.96-0.45-1.34c-0.25-0.58-0.66-0.98-1.33-1.04c-1.32-0.12-2.28,1.22-1.7,2.45
		c0.23,0.5,0.6,0.94,0.96,1.37c0.86,1.02,0.9,2.19,0.1,3.24c-0.2,0.26-0.36,0.55-0.52,0.84c-0.5,0.93-0.56,1.95-0.68,2.97
		c-0.09,0.79-0.19,1.59-0.64,2.38c-0.2-0.27-0.36-0.47-0.51-0.68c-0.16-0.21-0.29-0.45-0.47-0.64c-0.74-0.78-1.8-0.57-2.09,0.46
		c-0.14,0.49-0.21,1.08-0.07,1.56c0.26,0.96,0.68,1.88,1.05,2.81c0.21,0.53,0.45,1.04,0.72,1.67c-0.37,0-0.62,0.02-0.85,0
		c-0.56-0.05-1.12-0.19-1.67-0.15c-1.1,0.07-2.2,0.24-3.3,0.35c-0.97,0.09-1.93,0.06-2.76-0.53c-2.28-1.6-4.82-1.97-7.52-1.65
		c-0.51,0.06-1.03,0.16-1.56,0.24c0.52-1.77,1.3-2.46,3.07-2.56c2.47-0.14,4.22-1.36,5.41-3.47c0.41-0.72,0.35-1.43-0.18-1.95
		c-0.52-0.51-1.2-0.57-1.91-0.14c-0.51,0.31-0.99,0.64-1.48,0.96c-1.12-1.2-1.68-2.54-1.35-4.19c0.12-0.58,0.17-1.19,0.12-1.78
		c-0.12-1.26,0.49-2.05,1.53-2.58c0.82-0.42,1.68-0.77,2.51-1.18c0.81-0.4,1.63-0.8,2.4-1.28c0.72-0.45,1.2-1.14,1.47-1.94
		c0.27-0.8-0.1-1.39-0.93-1.5c-0.19-0.03-0.41-0.04-0.59,0.02c-0.76,0.22-1.52,0.43-2.26,0.7c-0.73,0.27-1.42,0.62-2.15,0.89
		c-0.22,0.08-0.66,0.06-0.71-0.05c-0.1-0.22-0.02-0.53,0.02-0.8c0.01-0.11,0.11-0.2,0.17-0.3c0.5-0.84,0.99-1.68,1.49-2.52
		c1.49-2.5,2.61-5.15,3.29-7.98c0.27-1.13,0.19-2.21-0.7-3.09c-0.6-0.6-1.36-0.6-1.91,0.05c-0.29,0.33-0.53,0.73-0.69,1.13
		c-0.31,0.78-0.5,1.61-0.81,2.39c-0.25,0.64-0.59,1.25-0.89,1.87c-0.05-0.02-0.11-0.04-0.16-0.06c-0.05-0.2-0.09-0.41-0.16-0.61
		c-0.18-0.58-0.32-1.18-0.56-1.74c-0.26-0.6-0.71-1.04-1.39-1.16c-0.82-0.15-1.51,0.09-2.03,0.74c-0.57,0.7-0.69,1.52-0.32,2.33
		c0.26,0.56,0.68,1.05,1.03,1.56c0.3,0.43,0.69,0.82,0.9,1.29c0.58,1.32,0.6,2.58-0.41,3.79c-0.51,0.62-0.79,1.43-1.17,2.16
		c-0.06,0.12-0.1,0.26-0.17,0.45c-0.5-0.62-0.95-1.19-1.42-1.74c-0.44-0.52-1.02-0.68-1.66-0.51c-0.65,0.17-1.04,0.62-1.19,1.27
		c-0.12,0.52,0.05,0.97,0.33,1.41c0.92,1.45,1.83,2.91,2.76,4.35c0.22,0.34,0.24,0.63,0.02,1c-0.22,0.36-0.38,0.78-0.45,1.19
		c-0.14,0.78-0.2,1.57-0.3,2.36c-0.02,0.12-0.09,0.23-0.14,0.34c-0.11-0.08-0.26-0.14-0.31-0.25c-0.38-0.86-0.78-1.71-1.1-2.6
		c-0.42-1.18-0.62-2.38-0.37-3.65c0.21-1.05,0.02-2.1-0.64-2.97c-0.4-0.54-0.36-0.93-0.01-1.46c0.93-1.39,1.81-2.81,2.68-4.23
		c0.66-1.07,0.18-2.32-0.99-2.59c-0.68-0.16-1.23,0.09-1.67,0.61c-0.44,0.53-0.87,1.07-1.37,1.68c-0.34-1.3-0.96-2.31-1.73-3.25
		c-0.2-0.24-0.27-0.6-0.32-0.92c-0.19-1.29,0.2-2.4,1.05-3.38c0.46-0.53,0.9-1.11,1.21-1.74c0.54-1.11,0.01-2.44-1.08-2.93
		c-1.11-0.5-2.2-0.03-2.75,1.19C7.41,3.96,7.32,4.3,7.22,4.64C7.11,5.04,7.02,5.46,6.9,5.94C6.76,5.75,6.64,5.63,6.58,5.49
		C6.22,4.62,5.9,3.74,5.53,2.88c-0.32-0.76-0.6-1.55-1.04-2.23C3.93-0.21,3.06-0.19,2.36,0.56C1.63,1.36,1.46,2.33,1.74,3.3
		c0.49,1.71,0.97,3.45,1.7,5.06c0.9,1.96,2.06,3.8,3.1,5.7c0.09,0.16,0.2,0.31,0.24,0.48c0.18,0.63-0.05,0.89-0.66,0.68
		c-0.79-0.27-1.54-0.67-2.34-0.94c-0.82-0.28-1.66-0.57-2.52-0.66c-1.06-0.11-1.54,0.67-1.12,1.65c0.38,0.9,0.99,1.62,1.85,2.07
		c0.92,0.49,1.88,0.89,2.81,1.34c0.71,0.35,1.43,0.69,2.11,1.1c0.76,0.46,1.11,1.16,1.1,2.08C8,22.69,8.06,23.54,8.18,24.37
		c0.21,1.5-0.52,2.59-1.34,3.59c-1.17-0.61-2.27-1.22-3.39-1.77c-0.75-0.37-1.51-0.12-1.9,0.53c-0.39,0.65-0.24,1.43,0.39,1.95
		c0.45,0.37,0.93,0.7,1.34,1.1c1.41,1.37,2.92,2.59,4.72,3.41c0.15,0.07,0.28,0.17,0.41,0.27c0.52,0.38,0.79,0.88,0.75,1.53
		c-0.02,0.35-0.05,0.69-0.11,1.03c-0.61,3.22-1.83,6.23-3.1,9.23c-0.06,0.15-0.21,0.3-0.35,0.39c-1.3,0.79-2.67,1.45-4.17,1.79
		c-0.38,0.09-0.68,0.25-0.63,0.68c0.05,0.42,0.36,0.56,0.76,0.54c0.08,0,0.17,0,0.25,0c15.05,0,30.1,0,45.16,0
		c0.13,0,0.27,0.01,0.4,0c0.48-0.03,0.76-0.35,0.59-0.8c-0.23-0.62-0.46-1.25-0.82-1.79c-0.7-1.07-1.63-1.27-2.8-0.75
		c-0.22,0.1-0.48,0.19-0.7,0.16c-0.69-0.09-1.36-0.24-2.07-0.38c0.19-0.25,0.38-0.58,0.63-0.85C42.69,43.67,42.85,43.06,42.55,42.36
		z M33.64,19.08c1.51,0.02,2.75-1.16,2.77-2.65c0.03-1.56-1.16-2.8-2.71-2.82c-1.48-0.02-2.74,1.2-2.76,2.68
		C30.93,17.82,32.12,19.06,33.64,19.08z M1.06,40.03c-0.01,1.17,0.91,2.13,2.06,2.16c1.22,0.02,2.2-0.91,2.21-2.12
		c0.01-1.18-0.94-2.15-2.12-2.16C2.03,37.91,1.08,38.84,1.06,40.03z M16.9,4.58c1.17,0,2.13-0.96,2.11-2.11
		c-0.01-1.15-0.95-2.07-2.1-2.07c-1.18,0-2.11,0.93-2.11,2.11C14.81,3.65,15.75,4.58,16.9,4.58z M27.31,28.39
		c-1.14,0-2.1,0.95-2.08,2.08c0.01,1.14,0.97,2.09,2.1,2.07c1.13-0.01,2.04-0.94,2.04-2.07C29.37,29.31,28.46,28.39,27.31,28.39z
		 M42.47,14.19c-0.01-0.92-0.75-1.66-1.67-1.67c-0.93,0-1.7,0.77-1.7,1.7c0.01,0.91,0.77,1.67,1.68,1.67
		C41.73,15.89,42.48,15.13,42.47,14.19z M32.41,25.1c0,0.89,0.72,1.61,1.6,1.6c0.85-0.01,1.57-0.73,1.58-1.58
		c0.01-0.88-0.72-1.59-1.61-1.59C33.11,23.52,32.42,24.22,32.41,25.1z"></path>
      <path d="M42.55,42.36c0.3,0.7,0.14,1.31-0.36,1.87c-0.25,0.28-0.45,0.6-0.63,0.85c0.7,0.13,1.38,0.28,2.07,0.38
		c0.22,0.03,0.49-0.06,0.7-0.16c1.17-0.52,2.1-0.32,2.8,0.75c0.36,0.54,0.59,1.17,0.82,1.79c0.16,0.44-0.11,0.76-0.59,0.8
		c-0.13,0.01-0.26,0-0.4,0c-15.05,0-30.1,0-45.16,0c-0.08,0-0.17,0-0.25,0c-0.39,0.02-0.71-0.11-0.76-0.54
		c-0.05-0.43,0.25-0.59,0.63-0.68c1.5-0.34,2.86-1,4.17-1.79c0.14-0.09,0.29-0.23,0.35-0.39c1.27-3,2.49-6.01,3.1-9.23
		c0.06-0.34,0.09-0.69,0.11-1.03c0.04-0.65-0.23-1.15-0.75-1.53c-0.13-0.1-0.27-0.2-0.41-0.27c-1.8-0.82-3.31-2.04-4.72-3.41
		c-0.41-0.4-0.89-0.74-1.34-1.1c-0.63-0.52-0.79-1.3-0.39-1.95c0.39-0.65,1.15-0.9,1.9-0.53c1.12,0.55,2.22,1.16,3.39,1.77
		c0.82-1,1.55-2.1,1.34-3.59C8.06,23.54,8,22.69,8.01,21.85c0.01-0.92-0.33-1.62-1.1-2.08c-0.68-0.41-1.39-0.75-2.11-1.1
		c-0.93-0.46-1.9-0.86-2.81-1.34c-0.86-0.45-1.47-1.17-1.85-2.07c-0.42-0.98,0.07-1.76,1.12-1.65c0.85,0.09,1.7,0.38,2.52,0.66
		c0.79,0.27,1.54,0.67,2.34,0.94c0.61,0.21,0.84-0.05,0.66-0.68c-0.05-0.17-0.16-0.33-0.24-0.48c-1.05-1.89-2.21-3.73-3.1-5.7
		C2.71,6.74,2.23,5.01,1.74,3.3C1.46,2.33,1.63,1.36,2.36,0.56c0.7-0.76,1.56-0.77,2.13,0.09c0.45,0.68,0.72,1.47,1.04,2.23
		c0.36,0.86,0.69,1.74,1.05,2.6C6.64,5.63,6.76,5.75,6.9,5.94c0.12-0.48,0.21-0.9,0.32-1.31C7.32,4.3,7.41,3.96,7.55,3.65
		c0.55-1.23,1.64-1.69,2.75-1.19c1.09,0.49,1.62,1.82,1.08,2.93c-0.31,0.63-0.75,1.2-1.21,1.74c-0.85,0.99-1.24,2.09-1.05,3.38
		c0.05,0.32,0.13,0.68,0.32,0.92c0.78,0.94,1.39,1.95,1.73,3.25c0.5-0.62,0.93-1.15,1.37-1.68c0.44-0.53,0.99-0.77,1.67-0.61
		c1.16,0.27,1.65,1.52,0.99,2.59c-0.88,1.42-1.76,2.84-2.68,4.23c-0.35,0.53-0.39,0.92,0.01,1.46c0.66,0.87,0.84,1.92,0.64,2.97
		c-0.25,1.27-0.05,2.47,0.37,3.65c0.31,0.88,0.72,1.74,1.1,2.6c0.05,0.11,0.2,0.17,0.31,0.25c0.05-0.11,0.13-0.22,0.14-0.34
		c0.1-0.79,0.16-1.58,0.3-2.36c0.08-0.41,0.24-0.83,0.45-1.19c0.22-0.37,0.2-0.66-0.02-1c-0.93-1.45-1.84-2.9-2.76-4.35
		c-0.28-0.43-0.45-0.89-0.33-1.41c0.15-0.65,0.55-1.1,1.19-1.27c0.64-0.17,1.22,0,1.66,0.51c0.47,0.55,0.92,1.12,1.42,1.74
		c0.07-0.19,0.11-0.33,0.17-0.45c0.38-0.73,0.65-1.55,1.17-2.16c1.01-1.21,0.99-2.47,0.41-3.79c-0.21-0.47-0.6-0.86-0.9-1.29
		c-0.35-0.51-0.77-1-1.03-1.56c-0.38-0.81-0.25-1.63,0.32-2.33c0.52-0.64,1.22-0.89,2.03-0.74c0.68,0.13,1.13,0.56,1.39,1.16
		c0.24,0.56,0.38,1.16,0.56,1.74c0.06,0.2,0.1,0.41,0.16,0.61c0.05,0.02,0.11,0.04,0.16,0.06c0.3-0.62,0.64-1.23,0.89-1.87
		c0.3-0.78,0.5-1.61,0.81-2.39c0.16-0.41,0.41-0.8,0.69-1.13c0.55-0.64,1.31-0.64,1.91-0.05c0.89,0.88,0.97,1.96,0.7,3.09
		c-0.68,2.83-1.8,5.48-3.29,7.98c-0.5,0.84-0.99,1.68-1.49,2.52c-0.06,0.1-0.16,0.19-0.17,0.3c-0.04,0.27-0.12,0.58-0.02,0.8
		c0.05,0.11,0.49,0.13,0.71,0.05c0.73-0.27,1.42-0.62,2.15-0.89c0.74-0.27,1.5-0.49,2.26-0.7c0.18-0.05,0.4-0.04,0.59-0.02
		c0.83,0.11,1.2,0.7,0.93,1.5c-0.27,0.8-0.75,1.49-1.47,1.94c-0.77,0.48-1.59,0.87-2.4,1.28c-0.83,0.41-1.69,0.76-2.51,1.18
		c-1.04,0.53-1.64,1.32-1.53,2.58c0.05,0.58,0,1.2-0.12,1.78c-0.33,1.65,0.23,2.98,1.35,4.19c0.49-0.32,0.98-0.65,1.48-0.96
		c0.71-0.43,1.39-0.37,1.91,0.14c0.54,0.52,0.59,1.23,0.18,1.95c-1.2,2.1-2.94,3.33-5.41,3.47c-1.76,0.1-2.54,0.79-3.07,2.56
		c0.53-0.08,1.05-0.18,1.56-0.24c2.7-0.33,5.24,0.05,7.52,1.65c0.84,0.59,1.8,0.62,2.76,0.53c1.1-0.1,2.2-0.28,3.3-0.35
		c0.55-0.03,1.11,0.11,1.67,0.15c0.24,0.02,0.48,0,0.85,0c-0.27-0.63-0.51-1.14-0.72-1.67c-0.37-0.93-0.78-1.85-1.05-2.81
		c-0.13-0.48-0.07-1.06,0.07-1.56c0.29-1.03,1.35-1.24,2.09-0.46c0.18,0.19,0.31,0.42,0.47,0.64c0.15,0.21,0.31,0.42,0.51,0.68
		c0.46-0.78,0.56-1.58,0.64-2.38c0.11-1.02,0.18-2.05,0.68-2.97c0.16-0.29,0.32-0.58,0.52-0.84c0.8-1.05,0.76-2.22-0.1-3.24
		c-0.36-0.43-0.73-0.87-0.96-1.37c-0.57-1.23,0.39-2.57,1.7-2.45c0.67,0.06,1.08,0.47,1.33,1.04c0.17,0.39,0.27,0.8,0.45,1.34
		c0.19-0.44,0.34-0.76,0.47-1.09c0.27-0.71,0.46-1.46,0.8-2.12c0.58-1.11,1.62-1.09,2.26,0c0.4,0.68,0.32,1.39,0.15,2.12
		c-0.63,2.62-1.91,4.95-3.3,7.22c-0.13,0.21-0.21,0.45-0.32,0.68c0.04,0.04,0.07,0.09,0.11,0.13c0.32-0.11,0.63-0.21,0.95-0.33
		c0.8-0.29,1.6-0.62,2.41-0.88c0.25-0.08,0.56-0.04,0.82,0.03c0.49,0.12,0.72,0.54,0.61,1.03c-0.16,0.73-0.58,1.32-1.2,1.7
		c-0.72,0.43-1.5,0.76-2.25,1.14c-0.53,0.27-1.07,0.52-1.58,0.82c-0.47,0.28-0.69,0.71-0.68,1.29c0.01,0.56-0.01,1.13-0.11,1.68
		c-0.18,1.01,0.21,1.8,0.86,2.57c0.83-0.53,1.63-1.35,2.66-0.39C42.51,42.32,42.53,42.34,42.55,42.36z M26.95,20.57
		c-0.16,0.02-0.23,0.02-0.29,0.04c-1.05,0.39-2.09,0.8-3.15,1.17c-0.57,0.2-1.16,0.42-1.75,0.48c-0.9,0.1-1.53-0.45-1.54-1.34
		c0-0.52,0.12-1.09,0.36-1.55c0.99-1.87,2.16-3.65,3.03-5.57c0.74-1.62,1.19-3.38,1.72-5.1c0.19-0.61,0.01-1.2-0.62-1.73
		c-0.25,0.51-0.5,0.97-0.69,1.45c-0.41,1.06-0.76,2.14-1.2,3.19c-0.21,0.49-0.58,0.92-0.88,1.38c0.15,0.17,0.38,0.33,0.43,0.53
		c0.06,0.23,0.04,0.58-0.11,0.74c-0.12,0.13-0.57,0.15-0.69,0.04c-0.43-0.42-0.85-0.88-1.13-1.41c-0.27-0.52-0.34-1.13-0.52-1.7
		c-0.15-0.5-0.27-1.03-0.52-1.49c-0.28-0.54-0.94-0.55-1.33-0.08c-0.31,0.36-0.36,0.79-0.14,1.2c0.22,0.4,0.51,0.77,0.78,1.14
		c0.3,0.41,0.66,0.79,0.92,1.22c0.98,1.64,0.95,4.11-0.37,5.41c-0.44,0.43-0.71,1.08-0.91,1.68c-0.47,1.44-0.54,1.11,0.62,1.99
		c0.08,0.06,0.21,0.1,0.23,0.18c0.07,0.23,0.21,0.55,0.11,0.7c-0.12,0.17-0.45,0.25-0.7,0.27c-0.15,0.01-0.33-0.15-0.46-0.27
		c-0.77-0.72-1.55-1.43-2.29-2.18c-0.43-0.43-0.76-0.96-1.18-1.4c-0.12-0.12-0.46-0.18-0.59-0.1c-0.13,0.09-0.16,0.39-0.15,0.59
		c0.01,0.15,0.15,0.29,0.24,0.43c0.89,1.41,1.78,2.82,2.68,4.23c0.46,0.72,0.46,1.42-0.02,2.13c-0.14,0.21-0.26,0.47-0.3,0.72
		c-0.12,0.78-0.22,1.57-0.29,2.36c-0.07,0.77-0.46,1.26-1.17,1.4c-0.62,0.12-1.2-0.18-1.52-0.85c-0.39-0.84-0.78-1.68-1.1-2.54
		c-0.53-1.44-0.82-2.92-0.51-4.47c0.17-0.84-0.05-1.63-0.57-2.34c-0.59-0.81-0.6-1.43-0.06-2.29c0.81-1.29,1.62-2.57,2.44-3.86
		c0.14-0.22,0.35-0.43,0.4-0.68c0.05-0.21-0.07-0.46-0.12-0.7c-0.21,0.06-0.48,0.06-0.63,0.19c-0.27,0.24-0.46,0.56-0.69,0.84
		c-0.89,1.07-1.82,2.1-3,2.87c-0.32,0.21-0.64,0.22-0.87-0.1c-0.24-0.35-0.12-0.65,0.22-0.89c0.26-0.18,0.5-0.38,0.76-0.56
		c0.23-0.16,0.31-0.34,0.24-0.63c-0.25-1.02-0.66-1.96-1.32-2.8c-0.33-0.42-0.63-0.91-0.75-1.42C7.6,9.34,8.05,7.78,9.23,6.4
		c0.4-0.47,0.78-0.98,1.07-1.53c0.27-0.5-0.02-1.12-0.51-1.33C9.29,3.33,8.87,3.53,8.63,4.15C8.45,4.62,8.33,5.13,8.22,5.62
		c-0.24,1.02-0.53,2.01-1.4,2.72C6.51,8.6,6.21,8.73,5.9,8.44C5.59,8.14,5.68,7.81,5.95,7.52C6.06,7.4,6.16,7.28,6.28,7.14
		c-0.9-1.13-1.52-2.35-1.84-3.73c-0.11-0.48-0.31-0.94-0.5-1.4C3.82,1.73,3.63,1.48,3.46,1.19C2.73,1.77,2.74,2.5,2.92,3.22
		C3.43,5.25,4.09,7.25,5.1,9.1c0.85,1.55,1.77,3.06,2.62,4.61c0.4,0.72,0.48,1.5-0.02,2.21c-0.48,0.69-1.22,0.65-1.94,0.45
		c-0.44-0.12-0.87-0.31-1.3-0.49c-0.77-0.31-1.52-0.64-2.29-0.93c-0.27-0.1-0.58-0.12-0.95-0.19c0.35,0.79,0.84,1.3,1.49,1.63
		c0.78,0.4,1.59,0.73,2.37,1.12c0.89,0.44,1.79,0.85,2.62,1.39c1.03,0.66,1.51,1.66,1.48,2.91c-0.01,0.64,0,1.3,0.11,1.93
		c0.3,1.69-0.11,3.17-1.16,4.51c-0.06,0.08-0.1,0.19-0.15,0.29c0.63,0.13,0.87,0.08,1.12-0.2c0.32-0.37,0.64-0.45,0.92-0.21
		c0.27,0.23,0.28,0.63,0,0.98c-0.37,0.48-0.89,0.67-1.47,0.7c-1.06,0.05-1.93-0.45-2.81-0.98c-0.86-0.52-1.75-0.99-2.64-1.46
		c-0.14-0.07-0.35-0.02-0.53-0.02c0.08,0.17,0.11,0.4,0.24,0.52c0.76,0.69,1.52,1.38,2.32,2.01c0.77,0.61,1.59,1.18,2.41,1.73
		c0.51,0.34,1.08,0.58,1.58,0.93c0.77,0.54,1.23,1.3,1.19,2.27c-0.02,0.64-0.06,1.29-0.19,1.92c-0.48,2.42-1.36,4.72-2.26,7.01
		c-0.07,0.17-0.12,0.34-0.23,0.63c0.29-0.18,0.45-0.27,0.6-0.36c1.19-0.72,2.41-1.36,3.8-1.65c0.7-0.15,1.38-0.42,2.08-0.58
		c0.69-0.16,1.04-0.54,1.27-1.23c0.66-1.95,1.86-3.27,4.13-3.29c2.03-0.02,3.45-1.08,4.4-2.82c0.08-0.14,0.03-0.35,0.05-0.53
		c-0.18,0.02-0.39-0.01-0.53,0.07c-0.39,0.22-0.72,0.54-1.12,0.72c-0.74,0.34-1.49,0.71-2.28,0.9c-0.84,0.21-1.72-0.25-2.01-0.85
		c-0.16-0.32-0.14-0.62,0.17-0.83c0.31-0.21,0.61-0.13,0.82,0.17c0.32,0.45,0.73,0.39,1.22,0.29c-0.19-0.28-0.35-0.51-0.51-0.74
		c-0.83-1.17-1.07-2.46-0.87-3.86c0.1-0.7,0.17-1.42,0.14-2.12c-0.05-1.3,0.48-2.3,1.55-2.97c0.86-0.54,1.81-0.95,2.72-1.41
		c0.84-0.42,1.7-0.8,2.52-1.26C26.33,21.69,26.69,21.21,26.95,20.57z M4.86,47.42c13.97,0,27.81,0,41.65,0
		c-0.4-1.16-0.83-1.32-1.92-0.94c-0.45,0.16-0.99,0.09-1.49,0.08c-0.49-0.01-0.97-0.11-1.45-0.1c-0.47,0.01-0.85-0.1-1.11-0.5
		c-0.32-0.49-0.29-1.11,0.09-1.63c0.28-0.39,0.58-0.78,0.87-1.17c-0.41,0.14-0.75,0.37-1.09,0.58c-0.92,0.57-1.86,0.84-2.91,0.33
		c-0.2-0.1-0.44-0.17-0.67-0.17c-2.24-0.07-4.47-0.06-6.52,1.06c-0.17,0.09-0.49,0.09-0.63-0.01c-0.15-0.12-0.19-0.41-0.25-0.63
		c-0.02-0.07,0.01-0.15,0.03-0.26c-0.4,0.03-0.76,0.07-1.12,0.09c-1.12,0.07-2.25,0.04-3.2-0.63c-1.98-1.4-4.17-1.88-6.53-1.6
		c-1.05,0.13-2.09,0.38-3.13,0.57c0,0.06,0.01,0.12,0.01,0.18c1.18,0.54,2.34,1.12,3.55,1.61c0.96,0.39,1.96,0.68,2.95,1
		c0.37,0.12,0.58,0.35,0.47,0.74c-0.11,0.38-0.39,0.51-0.77,0.41c-0.11-0.03-0.22-0.06-0.34-0.08c-1.91-0.5-3.71-1.29-5.46-2.19
		c-1.76-0.9-3.55-0.97-5.28-0.04C8.68,45.11,6.83,46.26,4.86,47.42z M40.53,27.96c-0.05,0-0.09,0-0.14,0
		c0.03,0.04,0.05,0.08,0.09,0.12c0.27,0.29,0.36,0.62,0.05,0.92c-0.34,0.33-0.64,0.15-0.95-0.12c-0.48-0.43-0.74-0.96-0.89-1.57
		c-0.1-0.43-0.2-0.87-0.33-1.29c-0.1-0.3-0.23-0.62-0.66-0.49c-0.32,0.1-0.44,0.51-0.22,0.88c0.19,0.32,0.43,0.63,0.68,0.91
		c1.25,1.36,1.34,3.66,0.19,4.8c-0.58,0.57-0.75,1.41-0.87,2.23c-0.14,0.98-0.27,1.96-0.5,2.92c-0.16,0.66-0.44,1.34-1.24,1.45
		c-0.8,0.11-1.2-0.49-1.61-1.05c-0.15-0.2-0.29-0.42-0.52-0.75c-0.04,0.35-0.11,0.55-0.07,0.73c0.15,0.66,0.27,1.33,0.51,1.95
		c0.41,1.02,0.91,2,1.36,2.96c1.03,0.16,2.09,0.32,3.17,0.49c-0.04-0.07-0.09-0.15-0.14-0.23c-0.56-0.83-0.8-1.72-0.66-2.72
		c0.08-0.55,0.12-1.12,0.11-1.68c-0.02-0.95,0.37-1.67,1.12-2.19c0.38-0.26,0.79-0.49,1.2-0.69c0.71-0.34,1.46-0.63,2.16-0.99
		c0.38-0.19,0.7-0.5,1.05-0.75c-0.03-0.05-0.06-0.1-0.09-0.16c-0.27,0.09-0.55,0.18-0.82,0.28c-0.64,0.26-1.27,0.57-1.92,0.78
		c-0.53,0.17-1.1,0.19-1.52-0.28c-0.41-0.45-0.38-1-0.24-1.55c0.04-0.17,0.15-0.33,0.24-0.48c0.6-1.05,1.29-2.05,1.77-3.15
		c0.62-1.4,1.09-2.86,1.57-4.31c0.09-0.28-0.04-0.64-0.07-0.96c-0.05,0-0.11,0-0.16,0C41.62,25.3,41.08,26.63,40.53,27.96z"></path>
      <path d="M33.64,19.08c-1.51-0.02-2.71-1.26-2.69-2.79c0.02-1.48,1.27-2.7,2.76-2.68c1.55,0.02,2.74,1.26,2.71,2.82
		C36.38,17.92,35.15,19.09,33.64,19.08z M33.7,17.88c0.86-0.01,1.53-0.69,1.52-1.55c-0.01-0.85-0.7-1.54-1.55-1.53
		c-0.84,0.01-1.54,0.72-1.53,1.56C32.15,17.22,32.84,17.89,33.7,17.88z"></path>
      <path d="M1.06,40.03c0.01-1.19,0.96-2.13,2.16-2.12c1.18,0.01,2.13,0.97,2.12,2.16c-0.01,1.2-0.99,2.14-2.21,2.12
		C1.97,42.17,1.05,41.21,1.06,40.03z M3.18,39.11c-0.53,0.01-0.93,0.42-0.92,0.95c0,0.53,0.41,0.94,0.94,0.94
		c0.54,0,0.97-0.44,0.96-0.98C4.13,39.5,3.7,39.1,3.18,39.11z"></path>
      <path d="M16.9,4.58c-1.15,0-2.09-0.93-2.09-2.08c0-1.18,0.93-2.11,2.11-2.11c1.15,0,2.08,0.92,2.1,2.07
		C19.03,3.62,18.07,4.58,16.9,4.58z M17.82,2.5c0.01-0.5-0.4-0.91-0.91-0.91c-0.5,0-0.89,0.37-0.91,0.86
		c-0.02,0.5,0.38,0.93,0.88,0.94C17.39,3.4,17.82,3,17.82,2.5z"></path>
      <path d="M27.31,28.39c1.16,0,2.07,0.92,2.06,2.09c0,1.13-0.92,2.05-2.04,2.07c-1.13,0.01-2.09-0.93-2.1-2.07
		C25.21,29.34,26.16,28.39,27.31,28.39z M27.29,31.35c0.48,0.01,0.89-0.39,0.89-0.87c0-0.49-0.38-0.89-0.86-0.9
		c-0.48-0.01-0.89,0.38-0.9,0.87C26.4,30.92,26.81,31.34,27.29,31.35z"></path>
      <path d="M42.55,42.36c-0.02-0.02-0.04-0.04-0.06-0.06c-0.29-0.56-0.54-1.13-0.36-1.79c0.24-0.91,1.01-1.56,1.91-1.6
		c0.94-0.04,1.77,0.52,2.07,1.39c0.3,0.87-0.01,1.84-0.76,2.37c-0.76,0.54-1.74,0.51-2.49-0.07C42.76,42.52,42.65,42.44,42.55,42.36
		z M44.14,40.1c-0.48,0-0.88,0.41-0.88,0.89c0.01,0.48,0.42,0.88,0.9,0.88c0.48-0.01,0.89-0.42,0.88-0.9
		C45.03,40.49,44.62,40.1,44.14,40.1z"></path>
      <path d="M42.47,14.19c0.01,0.95-0.74,1.7-1.69,1.7c-0.91,0-1.67-0.76-1.68-1.67c-0.01-0.93,0.77-1.71,1.7-1.7
		C41.72,12.52,42.46,13.26,42.47,14.19z M40.71,14.77c0.07,0,0.14-0.01,0.21-0.01c0.12-0.19,0.31-0.36,0.34-0.56
		c0.04-0.31-0.2-0.53-0.49-0.46c-0.18,0.04-0.44,0.3-0.44,0.47C40.33,14.39,40.57,14.58,40.71,14.77z"></path>
      <path d="M32.41,25.1c0-0.87,0.7-1.57,1.57-1.57c0.89,0,1.62,0.71,1.61,1.59c-0.01,0.85-0.72,1.57-1.58,1.58
		C33.13,26.71,32.41,25.99,32.41,25.1z M34.01,24.54c-0.19,0.25-0.39,0.4-0.37,0.52c0.03,0.16,0.23,0.29,0.35,0.44
		c0.14-0.14,0.34-0.26,0.38-0.42C34.39,24.97,34.19,24.8,34.01,24.54z"></path>
      <path d="M26.95,20.57c-0.26,0.64-0.62,1.12-1.14,1.41c-0.82,0.45-1.68,0.83-2.52,1.26c-0.91,0.46-1.86,0.87-2.72,1.41
		c-1.07,0.67-1.59,1.67-1.55,2.97c0.03,0.71-0.04,1.42-0.14,2.12c-0.2,1.41,0.04,2.7,0.87,3.86c0.16,0.23,0.32,0.46,0.51,0.74
		c-0.49,0.11-0.91,0.17-1.22-0.29c-0.21-0.3-0.51-0.38-0.82-0.17c-0.31,0.21-0.33,0.51-0.17,0.83c0.29,0.6,1.18,1.06,2.01,0.85
		c0.79-0.19,1.54-0.56,2.28-0.9c0.4-0.19,0.74-0.5,1.12-0.72c0.15-0.08,0.35-0.05,0.53-0.07c-0.01,0.18,0.03,0.39-0.05,0.53
		c-0.95,1.73-2.38,2.8-4.4,2.82c-2.27,0.02-3.46,1.35-4.13,3.29c-0.23,0.69-0.58,1.07-1.27,1.23c-0.7,0.16-1.38,0.43-2.08,0.58
		c-1.38,0.29-2.6,0.94-3.8,1.65c-0.15,0.09-0.31,0.19-0.6,0.36c0.11-0.29,0.17-0.46,0.23-0.63c0.9-2.29,1.78-4.59,2.26-7.01
		c0.12-0.63,0.16-1.28,0.19-1.92c0.04-0.97-0.42-1.73-1.19-2.27c-0.5-0.35-1.07-0.59-1.58-0.93c-0.82-0.55-1.63-1.12-2.41-1.73
		c-0.8-0.64-1.56-1.32-2.32-2.01c-0.13-0.12-0.16-0.34-0.24-0.52c0.18,0.01,0.39-0.05,0.53,0.02c0.89,0.47,1.78,0.94,2.64,1.46
		c0.87,0.53,1.74,1.02,2.81,0.98c0.59-0.03,1.1-0.22,1.47-0.7c0.28-0.35,0.27-0.76,0-0.98c-0.28-0.23-0.61-0.16-0.92,0.21
		c-0.25,0.29-0.49,0.34-1.12,0.2c0.05-0.1,0.08-0.21,0.15-0.29c1.05-1.33,1.46-2.82,1.16-4.51c-0.11-0.63-0.13-1.28-0.11-1.93
		c0.03-1.25-0.46-2.25-1.48-2.91c-0.83-0.53-1.73-0.95-2.62-1.39c-0.78-0.39-1.6-0.72-2.37-1.12c-0.65-0.33-1.14-0.83-1.49-1.63
		c0.37,0.07,0.68,0.09,0.95,0.19c0.77,0.29,1.53,0.62,2.29,0.93c0.43,0.17,0.85,0.37,1.3,0.49c0.71,0.19,1.45,0.24,1.94-0.45
		c0.49-0.7,0.42-1.49,0.02-2.21C6.87,12.16,5.95,10.64,5.1,9.1C4.09,7.25,3.43,5.25,2.92,3.22C2.74,2.5,2.73,1.77,3.46,1.19
		c0.17,0.29,0.36,0.54,0.48,0.82c0.19,0.45,0.39,0.92,0.5,1.4c0.32,1.38,0.94,2.6,1.84,3.73C6.16,7.28,6.06,7.4,5.95,7.52
		C5.68,7.81,5.59,8.14,5.9,8.44c0.31,0.29,0.6,0.16,0.92-0.09c0.87-0.71,1.15-1.7,1.4-2.72c0.12-0.5,0.23-1,0.41-1.48
		c0.24-0.62,0.66-0.82,1.16-0.61c0.49,0.21,0.78,0.83,0.51,1.33C10.01,5.41,9.63,5.92,9.23,6.4C8.05,7.78,7.6,9.34,8.03,11.1
		c0.12,0.51,0.42,1.01,0.75,1.42c0.66,0.84,1.07,1.77,1.32,2.8c0.07,0.29-0.01,0.47-0.24,0.63c-0.26,0.18-0.5,0.38-0.76,0.56
		c-0.34,0.24-0.46,0.54-0.22,0.89c0.23,0.33,0.55,0.32,0.87,0.1c1.18-0.77,2.1-1.81,3-2.87c0.23-0.28,0.42-0.6,0.69-0.84
		c0.15-0.13,0.42-0.13,0.63-0.19c0.05,0.23,0.17,0.48,0.12,0.7c-0.06,0.24-0.26,0.45-0.4,0.68c-0.81,1.29-1.63,2.57-2.44,3.86
		c-0.54,0.86-0.53,1.48,0.06,2.29c0.52,0.71,0.74,1.5,0.57,2.34c-0.31,1.55-0.03,3.03,0.51,4.47c0.32,0.87,0.71,1.71,1.1,2.54
		c0.32,0.67,0.9,0.97,1.52,0.85c0.7-0.14,1.09-0.64,1.17-1.4c0.07-0.79,0.17-1.58,0.29-2.36c0.04-0.25,0.15-0.51,0.3-0.72
		c0.47-0.72,0.47-1.42,0.02-2.13c-0.9-1.41-1.79-2.82-2.68-4.23c-0.09-0.14-0.23-0.28-0.24-0.43c-0.01-0.2,0.02-0.5,0.15-0.59
		c0.12-0.08,0.47-0.03,0.59,0.1c0.42,0.44,0.75,0.97,1.18,1.4c0.74,0.75,1.52,1.47,2.29,2.18c0.13,0.12,0.31,0.28,0.46,0.27
		c0.25-0.02,0.58-0.1,0.7-0.27c0.1-0.14-0.04-0.46-0.11-0.7c-0.02-0.08-0.15-0.12-0.23-0.18c-1.17-0.88-1.09-0.55-0.62-1.99
		c0.2-0.6,0.47-1.25,0.91-1.68c1.32-1.3,1.35-3.77,0.37-5.41c-0.26-0.44-0.62-0.81-0.92-1.22c-0.27-0.37-0.56-0.74-0.78-1.14
		c-0.23-0.41-0.17-0.84,0.14-1.2c0.39-0.46,1.05-0.45,1.33,0.08c0.24,0.46,0.36,0.98,0.52,1.49c0.18,0.57,0.25,1.18,0.52,1.7
		c0.27,0.53,0.7,0.99,1.13,1.41c0.12,0.12,0.57,0.09,0.69-0.04c0.14-0.15,0.16-0.5,0.11-0.74c-0.05-0.2-0.28-0.35-0.43-0.53
		c0.3-0.47,0.67-0.89,0.88-1.38c0.44-1.04,0.79-2.13,1.2-3.19c0.19-0.48,0.44-0.93,0.69-1.45c0.63,0.53,0.81,1.12,0.62,1.73
		c-0.52,1.72-0.98,3.48-1.72,5.1c-0.87,1.92-2.05,3.7-3.03,5.57c-0.24,0.46-0.36,1.03-0.36,1.55c0.01,0.9,0.64,1.45,1.54,1.34
		c0.6-0.07,1.18-0.28,1.75-0.48c1.06-0.37,2.1-0.78,3.15-1.17C26.72,20.59,26.78,20.59,26.95,20.57z M12.41,35.08
		c-0.1-0.48-0.18-0.97-0.33-1.43c-0.1-0.31-0.38-0.45-0.72-0.33c-0.33,0.12-0.47,0.39-0.37,0.71c0.28,0.84,0.14,1.67-0.05,2.49
		c-0.23,1.01-0.54,2-0.81,3c-0.1,0.36-0.03,0.67,0.36,0.8c0.39,0.13,0.66-0.06,0.77-0.42C11.76,38.33,12.25,36.76,12.41,35.08z
		 M10.74,41.25c-0.04-0.33-0.23-0.54-0.6-0.55c-0.38,0-0.75,0.52-0.75,1.07c0,0.37,0.2,0.59,0.57,0.61
		C10.36,42.41,10.75,41.84,10.74,41.25z"></path>
      <path d="M4.86,47.42c1.98-1.16,3.82-2.31,5.74-3.34c1.73-0.93,3.51-0.86,5.28,0.04c1.75,0.9,3.55,1.69,5.46,2.19
		c0.11,0.03,0.22,0.05,0.34,0.08c0.39,0.1,0.67-0.03,0.77-0.41c0.11-0.39-0.1-0.62-0.47-0.74c-0.99-0.32-1.99-0.61-2.95-1
		c-1.2-0.49-2.37-1.07-3.55-1.61c0-0.06-0.01-0.12-0.01-0.18c1.04-0.19,2.08-0.44,3.13-0.57c2.37-0.28,4.56,0.2,6.53,1.6
		c0.95,0.67,2.08,0.71,3.2,0.63c0.36-0.02,0.72-0.06,1.12-0.09c-0.01,0.12-0.05,0.2-0.03,0.26c0.07,0.22,0.1,0.51,0.25,0.63
		c0.13,0.11,0.46,0.1,0.63,0.01c2.05-1.12,4.28-1.13,6.52-1.06c0.23,0.01,0.46,0.08,0.67,0.17c1.04,0.51,1.99,0.24,2.91-0.33
		c0.34-0.21,0.67-0.44,1.09-0.58c-0.29,0.39-0.58,0.78-0.87,1.17c-0.37,0.52-0.41,1.13-0.09,1.63c0.26,0.4,0.64,0.51,1.11,0.5
		c0.48-0.01,0.97,0.09,1.45,0.1c0.5,0.01,1.04,0.08,1.49-0.08c1.09-0.38,1.52-0.22,1.92,0.94C32.66,47.42,18.83,47.42,4.86,47.42z"></path>
      <path d="M40.53,27.96c0.54-1.33,1.09-2.66,1.63-3.99c0.05,0,0.11,0,0.16,0c0.03,0.32,0.16,0.68,0.07,0.96
		c-0.48,1.45-0.95,2.91-1.57,4.31c-0.48,1.1-1.17,2.1-1.77,3.15c-0.09,0.16-0.2,0.31-0.24,0.48c-0.14,0.55-0.17,1.09,0.24,1.55
		c0.43,0.47,0.99,0.45,1.52,0.28c0.66-0.21,1.28-0.52,1.92-0.78c0.27-0.11,0.55-0.19,0.82-0.28c0.03,0.05,0.06,0.1,0.09,0.16
		c-0.35,0.25-0.67,0.56-1.05,0.75c-0.7,0.36-1.45,0.65-2.16,0.99c-0.41,0.2-0.82,0.42-1.2,0.69c-0.75,0.53-1.14,1.24-1.12,2.19
		c0.01,0.56-0.03,1.13-0.11,1.68c-0.15,1,0.1,1.9,0.66,2.72c0.05,0.08,0.1,0.16,0.14,0.23c-1.08-0.17-2.14-0.33-3.17-0.49
		c-0.44-0.96-0.95-1.94-1.36-2.96c-0.25-0.62-0.37-1.29-0.51-1.95c-0.04-0.18,0.03-0.38,0.07-0.73c0.23,0.33,0.37,0.54,0.52,0.75
		c0.4,0.55,0.81,1.15,1.61,1.05c0.8-0.11,1.09-0.79,1.24-1.45c0.23-0.96,0.36-1.94,0.5-2.92c0.12-0.82,0.28-1.65,0.87-2.23
		c1.15-1.13,1.06-3.44-0.19-4.8c-0.25-0.28-0.49-0.58-0.68-0.91c-0.22-0.37-0.1-0.78,0.22-0.88c0.43-0.13,0.57,0.19,0.66,0.49
		c0.13,0.42,0.23,0.86,0.33,1.29c0.15,0.61,0.41,1.14,0.89,1.57c0.31,0.28,0.61,0.45,0.95,0.12c0.31-0.3,0.22-0.63-0.05-0.92
		c-0.03-0.04-0.06-0.08-0.09-0.12C40.44,27.96,40.48,27.96,40.53,27.96z"></path>
      <path d="M33.7,17.88c-0.86,0.01-1.55-0.66-1.56-1.52c-0.01-0.84,0.69-1.56,1.53-1.56c0.85-0.01,1.55,0.68,1.55,1.53
		C35.23,17.2,34.56,17.88,33.7,17.88z"></path>
      <path d="M3.18,39.11c0.53-0.01,0.95,0.39,0.97,0.91C4.17,40.56,3.73,41,3.19,41c-0.52,0-0.93-0.41-0.94-0.94
		C2.25,39.53,2.65,39.12,3.18,39.11z"></path>
      <path d="M17.82,2.5c-0.01,0.5-0.44,0.9-0.94,0.89c-0.5-0.01-0.9-0.44-0.88-0.94c0.02-0.49,0.41-0.86,0.91-0.86
		C17.42,1.59,17.83,2,17.82,2.5z"></path>
      <path d="M27.29,31.35c-0.47-0.01-0.88-0.43-0.87-0.9c0.01-0.48,0.42-0.88,0.9-0.87c0.49,0.01,0.87,0.41,0.86,0.9
		C28.17,30.96,27.77,31.36,27.29,31.35z"></path>
      <path d="M44.14,40.1c0.48,0,0.89,0.39,0.9,0.87c0.01,0.47-0.4,0.89-0.88,0.9c-0.47,0.01-0.89-0.4-0.9-0.88
		C43.26,40.51,43.65,40.1,44.14,40.1z"></path>
      <path d="M40.71,14.77c-0.14-0.19-0.38-0.38-0.38-0.57c0-0.16,0.25-0.42,0.44-0.47c0.29-0.07,0.53,0.16,0.49,0.46
		c-0.03,0.2-0.22,0.37-0.34,0.56C40.85,14.76,40.78,14.77,40.71,14.77z"></path>
      <path d="M34.01,24.54c0.18,0.26,0.39,0.43,0.36,0.54c-0.04,0.16-0.25,0.28-0.38,0.42c-0.13-0.14-0.32-0.28-0.35-0.44
		C33.61,24.95,33.82,24.79,34.01,24.54z"></path>
      <path d="M12.41,35.08c-0.15,1.68-0.65,3.25-1.14,4.83c-0.11,0.36-0.38,0.55-0.77,0.42c-0.39-0.13-0.46-0.44-0.36-0.8
		c0.27-1,0.58-1.99,0.81-3c0.19-0.82,0.33-1.65,0.05-2.49c-0.11-0.32,0.04-0.59,0.37-0.71c0.34-0.12,0.62,0.02,0.72,0.33
		C12.23,34.11,12.3,34.6,12.41,35.08z"></path>
      <path d="M10.74,41.25c0.01,0.59-0.38,1.15-0.78,1.13c-0.37-0.02-0.57-0.23-0.57-0.61c0-0.55,0.36-1.08,0.75-1.07
		C10.52,40.71,10.71,40.93,10.74,41.25z"></path>
    
  </symbol>
  <symbol id="fishing-rod"  x="0px" y="0px" xml:space="preserve" viewBox="0 0 48 48">
    
      <path d="M43.41,48c-1.06-0.31-1.9-0.91-2.08-2.04c-0.14-0.85-0.1-1.74-0.06-2.61c0.02-0.51,0.7-0.77,1.12-0.45
		c0.35,0.28,0.68,0.6,0.95,0.96c0.33,0.44,0.09,0.9-0.58,1.2c-0.23,1.06,0.79,1.66,1.48,1.37c0.47-0.2,0.72-0.56,0.73-1.05
		c0.02-1.08,0.02-2.16,0-3.23c0-0.13-0.14-0.3-0.26-0.37c-0.79-0.44-1.22-1.11-1.22-2.02c0-0.91,0.4-1.6,1.23-2
		c0.32-0.15,0.26-0.38,0.26-0.62c0-7.97,0-15.93,0-23.9c0-1.15,0-2.31,0-3.63c-1.81,2.15-4.11,2.73-6.75,2.48
		c0,0.56,0.01,1.05,0,1.55c-0.03,1.74-0.6,3.28-1.79,4.55c-1.28,1.38-2.87,2.12-4.77,2.17c-0.54,0.01-1.09,0-1.64,0
		C30,21.21,30.01,22,29.91,22.79c-0.39,3.23-3.2,5.75-6.45,5.82c-0.3,0.01-0.59,0-0.99,0c1.84,2.2,2.03,4.49,0.51,6.9
		c0.33,0.31,0.67,0.63,1.14,1.07c0.24-0.29,0.47-0.61,0.75-0.9c0.39-0.41,0.82-0.43,1.15-0.09c0.32,0.33,0.3,0.76-0.1,1.15
		c-0.92,0.93-1.85,1.86-2.78,2.78c-0.39,0.39-0.83,0.43-1.16,0.12c-0.34-0.33-0.3-0.77,0.11-1.19c0.25-0.26,0.51-0.51,0.76-0.77
		c0.02-0.02,0.02-0.06,0.03-0.09c-0.33-0.32-0.67-0.64-1.03-0.98c-2.09,1.36-4.23,1.34-6.51-0.23c-0.06,0.12-0.12,0.3-0.23,0.42
		c-2.87,2.88-5.73,5.76-8.61,8.62c-1.9,1.88-4.96,1.41-6.07-0.92c-0.19-0.4-0.28-0.85-0.42-1.28c0-0.22,0-0.44,0-0.66
		c0.15-1.33,0.97-2.24,1.87-3.13c3.48-3.44,6.93-6.9,10.38-10.37c0.71-0.72,1.52-0.99,2.51-0.7c0.15,0.04,0.4-0.1,0.53-0.23
		c3.54-3.53,7.08-7.06,10.61-10.6C31.47,11.97,37.04,6.4,42.62,0.84c0.35-0.35,0.84-0.57,1.26-0.84c0.31,0,0.62,0,0.94,0
		c0.14,0.06,0.28,0.12,0.42,0.18c1,0.42,1.55,1.46,1.34,2.52c-0.05,0.27-0.09,0.55-0.09,0.83c0,11.17,0,22.34,0,33.51
		c0,0.12-0.02,0.25,0.01,0.37c0.02,0.09,0.06,0.23,0.13,0.26c0.82,0.36,1.2,1.05,1.38,1.88c0,0.16,0,0.31,0,0.47
		c-0.21,0.7-0.49,1.36-1.2,1.69c-0.28,0.13-0.33,0.31-0.33,0.58c0.01,1,0.02,1.99,0,2.99c-0.02,1.1-0.49,1.94-1.5,2.45
		c-0.21,0.1-0.42,0.18-0.64,0.27C44.03,48,43.72,48,43.41,48z M14.15,29.82c-0.04-0.05-0.08-0.1-0.12-0.15
		c-0.25,0.17-0.54,0.3-0.75,0.51C9.75,33.69,6.22,37.22,2.7,40.74c-0.21,0.21-0.43,0.41-0.62,0.64c-1.09,1.29-0.5,3.19,1.11,3.63
		c0.89,0.24,1.63-0.03,2.26-0.66c2.93-2.93,5.86-5.85,8.78-8.78c0.07-0.07,0.13-0.16,0.18-0.23C13.29,33.52,13.22,31.69,14.15,29.82
		z M18.52,27.06c0.49,0.07,0.94,0.09,1.37,0.2c0.34,0.09,0.53,0,0.77-0.23c7.99-8,15.99-16,23.98-24c0.37-0.37,0.48-1.07,0.21-1.33
		c-0.33-0.32-0.76-0.24-1.25,0.26c-8.25,8.25-16.5,16.5-24.75,24.75C18.75,26.81,18.65,26.93,18.52,27.06z M20.88,35.39
		c-0.3-0.27-0.61-0.51-0.87-0.79c-0.21-0.23-0.39-0.26-0.68-0.18c-0.88,0.25-1.65,0-2.25-0.67c-0.6-0.67-0.74-1.46-0.41-2.31
		c0.44-1.12,1.67-1.68,2.8-1.3c1.11,0.38,1.74,1.56,1.45,2.7c-0.04,0.18-0.09,0.43,0,0.55c0.27,0.35,0.61,0.66,0.93,0.99
		c1.07-1.38,0.76-3.59-0.62-4.82c-1.47-1.3-3.69-1.24-5.1,0.13c-1.4,1.37-1.51,3.63-0.24,5.09C17.15,36.23,19.35,36.54,20.88,35.39z
		 M44.95,5c-1.86,1.86-3.73,3.73-5.57,5.57C42.06,10.98,45.25,8.49,44.95,5z M28.48,21.57c-1.83,1.83-3.7,3.7-5.53,5.52
		C26.1,27.3,28.77,24.62,28.48,21.57z M31.09,18.83c3.35,0.33,5.99-2.72,5.59-5.59C34.84,15.09,32.97,16.96,31.09,18.83z
		 M19.5,32.29c0.01-0.4-0.32-0.76-0.72-0.77c-0.4-0.01-0.76,0.33-0.77,0.73c-0.01,0.41,0.31,0.75,0.72,0.76
		C19.14,33.02,19.49,32.7,19.5,32.29z M46.47,39.78c0.01-0.39-0.33-0.76-0.73-0.77C45.34,39,45,39.32,44.99,39.74
		c-0.01,0.42,0.3,0.75,0.71,0.77C46.11,40.51,46.46,40.18,46.47,39.78z"></path>
      <path d="M14.15,29.82c-0.94,1.88-0.86,3.7,0.27,5.51c-0.05,0.07-0.11,0.16-0.18,0.23c-2.93,2.93-5.85,5.86-8.78,8.78
		c-0.63,0.63-1.37,0.91-2.26,0.66c-1.62-0.44-2.2-2.34-1.11-3.63c0.19-0.23,0.41-0.43,0.62-0.64c3.52-3.52,7.05-7.05,10.58-10.57
		c0.21-0.21,0.5-0.34,0.75-0.51C14.07,29.72,14.11,29.77,14.15,29.82z"></path>
      <path d="M18.52,27.06c0.13-0.13,0.23-0.25,0.33-0.35c8.25-8.25,16.5-16.5,24.75-24.75c0.5-0.5,0.93-0.58,1.25-0.26
		c0.27,0.26,0.15,0.97-0.21,1.33c-8,8-15.99,15.99-23.98,24c-0.24,0.24-0.44,0.32-0.77,0.23C19.46,27.15,19.01,27.13,18.52,27.06z"></path>
      <path d="M20.88,35.39c-1.53,1.15-3.73,0.84-4.99-0.61c-1.27-1.46-1.16-3.72,0.24-5.09c1.41-1.38,3.63-1.43,5.1-0.13
		c1.38,1.23,1.69,3.44,0.62,4.82c-0.32-0.33-0.65-0.63-0.93-0.99c-0.09-0.12-0.05-0.37,0-0.55c0.29-1.14-0.34-2.32-1.45-2.7
		c-1.14-0.39-2.37,0.18-2.8,1.3c-0.33,0.85-0.19,1.64,0.41,2.31c0.6,0.67,1.37,0.92,2.25,0.67c0.3-0.08,0.48-0.05,0.68,0.18
		C20.27,34.88,20.58,35.12,20.88,35.39z"></path>
      <path d="M44.95,5c0.3,3.49-2.89,5.98-5.57,5.57C41.22,8.73,43.09,6.86,44.95,5z"></path>
      <path d="M28.48,21.57c0.29,3.05-2.38,5.73-5.53,5.52C24.77,25.27,26.65,23.4,28.48,21.57z"></path>
      <path d="M31.09,18.83c1.88-1.88,3.75-3.75,5.59-5.59C37.08,16.11,34.44,19.16,31.09,18.83z"></path>
      <path d="M19.5,32.29c-0.01,0.41-0.36,0.73-0.77,0.72c-0.41-0.01-0.74-0.35-0.72-0.76c0.01-0.4,0.37-0.74,0.77-0.73
		C19.18,31.53,19.51,31.89,19.5,32.29z"></path>
      <path d="M46.47,39.78c-0.01,0.4-0.37,0.73-0.77,0.72c-0.41-0.01-0.72-0.35-0.71-0.77c0.01-0.41,0.35-0.74,0.76-0.73
		C46.15,39.02,46.49,39.39,46.47,39.78z"></path>
    
  </symbol>
  <symbol id="lighthouse"  x="0px" y="0px" xml:space="preserve" viewBox="0 0 48 48.42">
    
      <path d="M37.45,42.6c-0.61,0.28-1.14,0.48-1.61,0.76c-1.5,0.89-1.58,2.53-0.09,3.42c0.94,0.56,2,1,3.07,1.27
		c2.87,0.73,5.72,0.3,8.54-0.43c0.49-0.13,0.74-0.61,0.61-1.05c-0.12-0.45-0.56-0.71-1.06-0.61c-0.95,0.19-1.9,0.43-2.86,0.56
		c-2.04,0.29-4.06,0.28-6.01-0.49c-0.57-0.22-1.09-0.55-1.64-0.83c0-0.09,0-0.17,0.01-0.26c0.66-0.25,1.31-0.52,1.98-0.73
		c0.49-0.16,1.02-0.21,1.51-0.38c0.53-0.17,0.82-0.59,0.81-1.15c-0.01-0.55-0.26-0.99-0.79-1.18c-1.41-0.52-2.87-0.85-4.39-0.69
		c-0.89,0.1-1.76,0.26-2.68,0.4c-0.75-7.77-1.49-15.5-2.23-23.22c1.74-0.25,2.75-1.25,2.75-2.66c0-0.67-0.24-1.27-0.68-1.78
		c-0.68-0.78-1.57-1.02-2.57-0.93c-0.62-1.73-0.66-3.41-0.14-5.13c0.11-0.36,0.28-0.43,0.62-0.42c1.05,0.04,1.9-0.57,2.12-1.48
		c0.24-0.98-0.2-1.89-1.16-2.36c-2.02-0.98-4.06-1.94-6.08-2.92c-0.87-0.42-1.73-0.4-2.6,0.02c-1.98,0.95-3.96,1.89-5.94,2.84
		c-1.02,0.49-1.48,1.36-1.26,2.36c0.21,0.96,1.05,1.56,2.18,1.53c0.35-0.01,0.51,0.1,0.61,0.43c0.43,1.39,0.5,2.79,0.13,4.21
		c-0.22,0.87-0.23,0.87-1.09,0.93c-1.36,0.1-2.38,1.15-2.48,2.55c-0.09,1.27,0.75,2.35,2.06,2.66c0.19,0.04,0.38,0.09,0.69,0.16
		c-0.6,6.21-1.2,12.42-1.8,18.59c-1.07-0.04-2.08-0.14-3.08-0.11C9.21,36.59,5.8,37.77,2.6,39.6c-0.82,0.47-1.58,1.06-2.32,1.66
		c-0.4,0.33-0.35,0.85-0.01,1.2c0.31,0.31,0.79,0.33,1.18,0.04c0.26-0.2,0.49-0.42,0.76-0.61c3.91-2.71,8.25-3.93,13-3.61
		c1.51,0.1,2.97,0.46,4.45,1.13c-0.28,0.06-0.47,0.11-0.67,0.15c-2.16,0.49-3.54,2.12-3.53,4.18c0.01,2.09,1.43,3.9,3.6,4.24
		c2.7,0.42,5.31,0.02,7.69-1.44c1.36-0.84,2.71-1.71,4.08-2.54C32.83,42.78,35.03,42.37,37.45,42.6z M2.45,5.82
		C1.82,5.8,1.49,6.02,1.38,6.48C1.26,7.06,1.63,7.47,2.35,7.55c3.29,0.38,6.57,0.76,9.86,1.14c0.58,0.07,1.01-0.21,1.09-0.71
		c0.08-0.51-0.24-0.91-0.82-0.99C11.14,6.83,9.8,6.68,8.46,6.52C6.44,6.28,4.42,6.05,2.45,5.82z M12.4,10.47
		c-0.07,0-0.14,0.01-0.22,0.01c-3.34,0.39-6.68,0.78-10.02,1.19c-0.22,0.03-0.54,0.18-0.62,0.35c-0.12,0.26-0.17,0.64-0.07,0.9
		c0.15,0.42,0.56,0.5,1,0.44c1.48-0.18,2.97-0.35,4.45-0.52c1.86-0.22,3.72-0.43,5.57-0.66c0.52-0.06,0.83-0.43,0.8-0.91
		C13.28,10.8,12.92,10.48,12.4,10.47z M36.14,10.48c-0.56-0.02-0.95,0.27-1,0.76c-0.06,0.52,0.3,0.9,0.92,0.97
		c3.22,0.37,6.43,0.74,9.65,1.12c0.64,0.07,1.06-0.18,1.12-0.71c0.07-0.54-0.24-0.9-0.89-0.99c-1.27-0.17-2.54-0.31-3.8-0.46
		C40.14,10.94,38.14,10.71,36.14,10.48z M45.95,5.83c-0.05,0-0.11,0-0.16,0.01C42.54,6.22,39.29,6.6,36.04,7
		c-0.63,0.08-0.97,0.47-0.89,0.98c0.07,0.52,0.52,0.79,1.13,0.71c1.11-0.13,2.22-0.25,3.33-0.38c2.14-0.25,4.29-0.5,6.43-0.76
		c0.52-0.06,0.84-0.43,0.82-0.9C46.83,6.18,46.46,5.84,45.95,5.83z"></path>
      <path d="M37.45,42.6c-2.43-0.23-4.62,0.18-6.63,1.39c-1.37,0.83-2.72,1.7-4.08,2.54c-2.38,1.46-4.99,1.86-7.69,1.44
		c-2.17-0.34-3.59-2.14-3.6-4.24c-0.01-2.05,1.37-3.68,3.53-4.18c0.19-0.04,0.38-0.09,0.67-0.15c-1.47-0.66-2.94-1.03-4.45-1.13
		c-4.75-0.32-9.09,0.91-13,3.61c-0.27,0.18-0.5,0.41-0.76,0.61c-0.38,0.3-0.87,0.28-1.18-0.04c-0.34-0.34-0.39-0.87,0.01-1.2
		c0.74-0.6,1.5-1.19,2.32-1.66c3.2-1.83,6.61-3.01,10.33-3.13c1-0.03,2.01,0.07,3.08,0.11c0.6-6.17,1.2-12.38,1.8-18.59
		c-0.31-0.07-0.5-0.11-0.69-0.16c-1.31-0.3-2.15-1.39-2.06-2.66c0.1-1.4,1.12-2.45,2.48-2.55c0.86-0.06,0.86-0.06,1.09-0.93
		c0.36-1.41,0.3-2.81-0.13-4.21c-0.1-0.33-0.26-0.44-0.61-0.43c-1.14,0.03-1.97-0.58-2.18-1.53c-0.22-1,0.24-1.87,1.26-2.36
		c1.98-0.95,3.96-1.89,5.94-2.84c0.87-0.42,1.72-0.44,2.6-0.02c2.02,0.98,4.06,1.94,6.08,2.92c0.97,0.47,1.4,1.38,1.16,2.36
		c-0.22,0.91-1.07,1.52-2.12,1.48C30.28,7.05,30.11,7.12,30,7.48c-0.52,1.71-0.48,3.4,0.14,5.13c1-0.08,1.89,0.15,2.57,0.93
		c0.44,0.51,0.68,1.11,0.68,1.78c0,1.41-1.02,2.41-2.75,2.66c0.74,7.73,1.49,15.46,2.23,23.22c0.92-0.14,1.79-0.3,2.68-0.4
		c1.52-0.16,2.97,0.16,4.39,0.69c0.52,0.19,0.78,0.63,0.79,1.18c0.01,0.56-0.28,0.98-0.81,1.15c-0.49,0.16-1.02,0.22-1.51,0.38
		c-0.67,0.22-1.32,0.49-1.98,0.73c0,0.09,0,0.17-0.01,0.26c0.54,0.28,1.07,0.61,1.64,0.83c1.95,0.76,3.98,0.78,6.01,0.49
		c0.96-0.14,1.9-0.38,2.86-0.56c0.49-0.1,0.93,0.17,1.06,0.61c0.12,0.44-0.13,0.93-0.61,1.05c-2.81,0.73-5.66,1.16-8.54,0.43
		c-1.06-0.27-2.13-0.71-3.07-1.27c-1.49-0.89-1.41-2.53,0.09-3.42C36.31,43.08,36.84,42.88,37.45,42.6z M22.99,38.94
		c0.07,0.11,0.1,0.18,0.14,0.23c0.32,0.48,0.35,0.98,0.04,1.47c-0.32,0.49-0.79,0.64-1.36,0.55c-0.23-0.04-0.46-0.06-0.7-0.08
		c-0.93-0.05-1.84,0.06-2.67,0.51c-1.53,0.83-1.75,2.8-0.45,3.95c0.63,0.56,1.39,0.84,2.23,0.83c2.33-0.02,4.51-0.49,6.48-1.84
		c1.35-0.92,2.79-1.7,4.18-2.56c0.14-0.09,0.27-0.32,0.27-0.48c-0.01-0.56-0.08-1.11-0.13-1.67c-0.1-1-0.2-2-0.31-3.02
		C28.12,37.54,25.59,38.23,22.99,38.94z M17.72,36.93c0.73,0.22,1.43,0.39,2.1,0.64c0.51,0.19,0.97,0.19,1.5,0.04
		c2.91-0.82,5.82-1.61,8.74-2.38c0.36-0.1,0.51-0.24,0.44-0.62c-0.08-0.46-0.09-0.93-0.13-1.4c-0.12-1.21-0.24-2.42-0.36-3.63
		c-0.11,0-0.16-0.01-0.21,0c-3.79,0.99-7.58,1.98-11.37,2.99c-0.14,0.04-0.31,0.25-0.33,0.4C17.96,34.27,17.85,35.58,17.72,36.93z
		 M18.31,30.8c3.88-1.02,7.7-2.02,11.53-3.03c-0.19-1.95-0.37-3.83-0.56-5.75c-3.4,0.84-6.73,1.67-10.06,2.51
		c-0.15,0.04-0.32,0.27-0.35,0.43c-0.11,0.78-0.17,1.57-0.25,2.36C18.53,28.46,18.43,29.6,18.31,30.8z M20.17,7.09
		c0.6,1.87,0.54,3.69,0.03,5.5c2.74,0,5.41,0,8.12,0c-0.54-1.85-0.53-3.66,0-5.5C25.59,7.09,22.93,7.09,20.17,7.09z M19.54,17.95
		c-0.15,1.59-0.3,3.16-0.46,4.81c3.4-0.84,6.7-1.66,10.03-2.49c-0.08-0.81-0.15-1.56-0.22-2.32C25.78,17.95,22.71,17.95,19.54,17.95
		z M31.27,5.12c-0.27-0.2-0.39-0.3-0.52-0.37c-2.01-0.97-4.01-1.94-6.03-2.87c-0.28-0.13-0.73-0.12-1.02,0.01
		c-2.01,0.92-4,1.89-5.99,2.84c-0.14,0.07-0.27,0.19-0.4,0.28c0.01,0.05,0.01,0.11,0.02,0.16c0.21,0.05,0.42,0.15,0.63,0.15
		c4.17,0.01,8.35,0.01,12.52,0C30.7,5.32,30.91,5.22,31.27,5.12z M24.28,14.36c-2.1,0-4.21,0-6.31,0c-0.73,0-1.16,0.34-1.17,0.9
		c-0.01,0.57,0.43,0.94,1.14,0.94c4.19,0,8.38,0,12.58,0c0.71,0,1.15-0.37,1.14-0.94c-0.01-0.56-0.44-0.9-1.17-0.9
		C28.42,14.36,26.35,14.36,24.28,14.36z"></path>
      <path d="M2.45,5.82c1.97,0.23,3.99,0.46,6.01,0.7C9.8,6.68,11.14,6.83,12.47,7c0.58,0.07,0.9,0.48,0.82,0.99
		c-0.07,0.5-0.51,0.77-1.09,0.71C8.93,8.32,5.64,7.93,2.35,7.55c-0.72-0.08-1.1-0.49-0.97-1.07C1.49,6.02,1.82,5.8,2.45,5.82z"></path>
      <path d="M12.4,10.47c0.51,0.01,0.88,0.33,0.9,0.81c0.02,0.48-0.28,0.85-0.8,0.91c-1.86,0.23-3.72,0.44-5.57,0.66
		c-1.48,0.17-2.97,0.34-4.45,0.52c-0.43,0.05-0.84-0.03-1-0.44c-0.1-0.26-0.05-0.64,0.07-0.9c0.08-0.18,0.39-0.33,0.62-0.35
		c3.34-0.41,6.68-0.8,10.02-1.19C12.26,10.48,12.33,10.48,12.4,10.47z"></path>
      <path d="M36.14,10.48c2,0.23,4,0.46,6.01,0.69c1.27,0.15,2.54,0.29,3.8,0.46c0.65,0.08,0.96,0.45,0.89,0.99
		c-0.07,0.53-0.48,0.78-1.12,0.71c-3.22-0.37-6.43-0.74-9.65-1.12c-0.62-0.07-0.98-0.45-0.92-0.97
		C35.19,10.75,35.58,10.46,36.14,10.48z"></path>
      <path d="M45.95,5.83c0.51,0.01,0.88,0.35,0.9,0.82c0.02,0.47-0.29,0.84-0.82,0.9c-2.14,0.26-4.29,0.51-6.43,0.76
		c-1.11,0.13-2.22,0.25-3.33,0.38c-0.62,0.07-1.06-0.2-1.13-0.71C35.07,7.46,35.4,7.07,36.04,7c3.25-0.39,6.5-0.77,9.76-1.15
		C45.85,5.83,45.9,5.83,45.95,5.83z"></path>
      <path d="M22.99,38.94c2.6-0.71,5.12-1.4,7.71-2.1c0.1,1.03,0.21,2.02,0.31,3.02c0.05,0.55,0.12,1.11,0.13,1.67
		c0,0.16-0.13,0.4-0.27,0.48c-1.39,0.86-2.83,1.64-4.18,2.56c-1.97,1.35-4.16,1.82-6.48,1.84c-0.84,0.01-1.59-0.27-2.23-0.83
		c-1.3-1.15-1.07-3.13,0.45-3.95c0.83-0.45,1.74-0.57,2.67-0.51c0.23,0.01,0.47,0.04,0.7,0.08c0.57,0.1,1.05-0.06,1.36-0.55
		c0.31-0.49,0.28-0.99-0.04-1.47C23.09,39.11,23.06,39.05,22.99,38.94z"></path>
      <path d="M17.72,36.93c0.13-1.36,0.24-2.66,0.38-3.97c0.02-0.15,0.19-0.36,0.33-0.4c3.79-1.01,7.58-2,11.37-2.99
		c0.05-0.01,0.1,0,0.21,0c0.12,1.21,0.24,2.42,0.36,3.63c0.05,0.47,0.06,0.94,0.13,1.4c0.06,0.39-0.08,0.53-0.44,0.62
		c-2.92,0.78-5.83,1.57-8.74,2.38c-0.53,0.15-0.99,0.15-1.5-0.04C19.15,37.32,18.45,37.15,17.72,36.93z"></path>
      <path d="M18.31,30.8c0.11-1.2,0.21-2.34,0.32-3.49c0.07-0.79,0.14-1.58,0.25-2.36c0.02-0.16,0.2-0.39,0.35-0.43
		c3.33-0.85,6.66-1.67,10.06-2.51c0.19,1.92,0.37,3.81,0.56,5.75C26.01,28.78,22.2,29.78,18.31,30.8z"></path>
      <path d="M20.17,7.09c2.76,0,5.42,0,8.14,0c-0.52,1.84-0.54,3.65,0,5.5c-2.7,0-5.37,0-8.12,0
		C20.71,10.78,20.77,8.96,20.17,7.09z"></path>
      <path d="M19.54,17.95c3.16,0,6.24,0,9.35,0c0.07,0.76,0.14,1.51,0.22,2.32c-3.33,0.83-6.63,1.64-10.03,2.49
		C19.24,21.11,19.39,19.54,19.54,17.95z"></path>
      <path d="M31.27,5.12c-0.37,0.1-0.57,0.21-0.78,0.21c-4.17,0.01-8.35,0.01-12.52,0c-0.21,0-0.42-0.1-0.63-0.15
		c-0.01-0.05-0.01-0.11-0.02-0.16c0.13-0.1,0.25-0.21,0.4-0.28c1.99-0.96,3.98-1.92,5.99-2.84c0.29-0.13,0.73-0.14,1.02-0.01
		c2.02,0.93,4.03,1.91,6.03,2.87C30.89,4.81,31,4.92,31.27,5.12z"></path>
      <path d="M24.28,14.36c2.07,0,4.14,0,6.21,0c0.73,0,1.16,0.34,1.17,0.9c0.01,0.56-0.44,0.93-1.14,0.94
		c-4.19,0-8.38,0-12.58,0c-0.71,0-1.15-0.37-1.14-0.94c0.01-0.56,0.44-0.9,1.17-0.9C20.07,14.36,22.17,14.36,24.28,14.36z"></path>
    
  </symbol>
</svg>