<?xml version="1.0" encoding="utf-8"?>
<!-- Generator: Adobe Illustrator 27.3.1, SVG Export Plug-In . SVG Version: 6.00 Build 0)  -->
<svg version="1.1" id="Layer_1" xmlns="http://www.w3.org/2000/svg" xmlns:xlink="http://www.w3.org/1999/xlink" x="0px" y="0px"
	 viewBox="0 0 48 48.4" style="enable-background:new 0 0 48 48.4;" xml:space="preserve">
<g>
	<path d="M37.5,42.6c-2.4-0.2-4.6,0.2-6.6,1.4c-1.4,0.8-2.7,1.7-4.1,2.5c-2.4,1.5-5,1.9-7.7,1.4c-2.2-0.3-3.6-2.1-3.6-4.2
		c0-2,1.4-3.7,3.5-4.2c0.2,0,0.4-0.1,0.7-0.2c-1.5-0.7-2.9-1-4.4-1.1c-4.8-0.3-9.1,0.9-13,3.6c-0.3,0.2-0.5,0.4-0.8,0.6
		c-0.4,0.3-0.9,0.3-1.2,0c-0.3-0.3-0.4-0.9,0-1.2c0.7-0.6,1.5-1.2,2.3-1.7c3.2-1.8,6.6-3,10.3-3.1c1,0,2,0.1,3.1,0.1
		c0.6-6.2,1.2-12.4,1.8-18.6c-0.3-0.1-0.5-0.1-0.7-0.2c-1.3-0.3-2.1-1.4-2.1-2.7c0.1-1.4,1.1-2.4,2.5-2.6c0.9-0.1,0.9-0.1,1.1-0.9
		c0.4-1.4,0.3-2.8-0.1-4.2C18.4,7.1,18.2,7,17.9,7c-1.1,0-2-0.6-2.2-1.5c-0.2-1,0.2-1.9,1.3-2.4c2-1,4-1.9,5.9-2.8
		c0.9-0.4,1.7-0.4,2.6,0c2,1,4.1,1.9,6.1,2.9c1,0.5,1.4,1.4,1.2,2.4c-0.2,0.9-1.1,1.5-2.1,1.5c-0.3,0-0.5,0.1-0.6,0.4
		c-0.5,1.7-0.5,3.4,0.1,5.1c1-0.1,1.9,0.1,2.6,0.9c0.4,0.5,0.7,1.1,0.7,1.8c0,1.4-1,2.4-2.8,2.7c0.7,7.7,1.5,15.5,2.2,23.2
		c0.9-0.1,1.8-0.3,2.7-0.4c1.5-0.2,3,0.2,4.4,0.7c0.5,0.2,0.8,0.6,0.8,1.2c0,0.6-0.3,1-0.8,1.2c-0.5,0.2-1,0.2-1.5,0.4
		c-0.7,0.2-1.3,0.5-2,0.7c0,0.1,0,0.2,0,0.3c0.5,0.3,1.1,0.6,1.6,0.8c2,0.8,4,0.8,6,0.5c1-0.1,1.9-0.4,2.9-0.6
		c0.5-0.1,0.9,0.2,1.1,0.6c0.1,0.4-0.1,0.9-0.6,1c-2.8,0.7-5.7,1.2-8.5,0.4c-1.1-0.3-2.1-0.7-3.1-1.3c-1.5-0.9-1.4-2.5,0.1-3.4
		C36.3,43.1,36.8,42.9,37.5,42.6z M23,38.9c0.1,0.1,0.1,0.2,0.1,0.2c0.3,0.5,0.4,1,0,1.5c-0.3,0.5-0.8,0.6-1.4,0.5
		c-0.2,0-0.5-0.1-0.7-0.1c-0.9,0-1.8,0.1-2.7,0.5c-1.5,0.8-1.8,2.8-0.5,4c0.6,0.6,1.4,0.8,2.2,0.8c2.3,0,4.5-0.5,6.5-1.8
		c1.4-0.9,2.8-1.7,4.2-2.6c0.1-0.1,0.3-0.3,0.3-0.5c0-0.6-0.1-1.1-0.1-1.7c-0.1-1-0.2-2-0.3-3C28.1,37.5,25.6,38.2,23,38.9z
		 M17.7,36.9c0.7,0.2,1.4,0.4,2.1,0.6c0.5,0.2,1,0.2,1.5,0c2.9-0.8,5.8-1.6,8.7-2.4c0.4-0.1,0.5-0.2,0.4-0.6
		c-0.1-0.5-0.1-0.9-0.1-1.4c-0.1-1.2-0.2-2.4-0.4-3.6c-0.1,0-0.2,0-0.2,0c-3.8,1-7.6,2-11.4,3c-0.1,0-0.3,0.2-0.3,0.4
		C18,34.3,17.9,35.6,17.7,36.9z M18.3,30.8c3.9-1,7.7-2,11.5-3c-0.2-2-0.4-3.8-0.6-5.8c-3.4,0.8-6.7,1.7-10.1,2.5
		c-0.1,0-0.3,0.3-0.4,0.4c-0.1,0.8-0.2,1.6-0.2,2.4C18.5,28.5,18.4,29.6,18.3,30.8z M20.2,7.1c0.6,1.9,0.5,3.7,0,5.5
		c2.7,0,5.4,0,8.1,0c-0.5-1.9-0.5-3.7,0-5.5C25.6,7.1,22.9,7.1,20.2,7.1z M19.5,18c-0.1,1.6-0.3,3.2-0.5,4.8c3.4-0.8,6.7-1.7,10-2.5
		C29,19.5,29,18.7,28.9,18C25.8,18,22.7,18,19.5,18z M30.5,5.3c0.2,0,0.4-0.1,0.8-0.2c-0.3-0.2-0.4-0.3-0.5-0.4c-2-1-4-1.9-6-2.9
		c-0.3-0.1-0.7-0.1-1,0c-2,0.9-4,1.9-6,2.8c-0.1,0.1-0.3,0.2-0.4,0.3c0,0.1,0,0.1,0,0.2c0.2,0.1,0.4,0.2,0.6,0.2 M24.3,14.4
		c-2.1,0-4.2,0-6.3,0c-0.7,0-1.2,0.3-1.2,0.9c0,0.6,0.4,0.9,1.1,0.9c4.2,0,8.4,0,12.6,0c0.7,0,1.1-0.4,1.1-0.9
		c0-0.6-0.4-0.9-1.2-0.9C28.4,14.4,26.4,14.4,24.3,14.4z"/>
	<path d="M2.5,5.8c2,0.2,4,0.5,6,0.7c1.3,0.2,2.7,0.3,4,0.5c0.6,0.1,0.9,0.5,0.8,1c-0.1,0.5-0.5,0.8-1.1,0.7
		C8.9,8.3,5.6,7.9,2.3,7.6c-0.7-0.1-1.1-0.5-1-1.1C1.5,6,1.8,5.8,2.5,5.8z"/>
	<path d="M12.4,10.5c0.5,0,0.9,0.3,0.9,0.8c0,0.5-0.3,0.9-0.8,0.9c-1.9,0.2-3.7,0.4-5.6,0.7c-1.5,0.2-3,0.3-4.4,0.5
		c-0.4,0.1-0.8,0-1-0.4c-0.1-0.3,0-0.6,0.1-0.9c0.1-0.2,0.4-0.3,0.6-0.4c3.3-0.4,6.7-0.8,10-1.2C12.3,10.5,12.3,10.5,12.4,10.5z"/>
	<path d="M36.1,10.5c2,0.2,4,0.5,6,0.7c1.3,0.1,2.5,0.3,3.8,0.5c0.7,0.1,1,0.4,0.9,1c-0.1,0.5-0.5,0.8-1.1,0.7
		c-3.2-0.4-6.4-0.7-9.7-1.1c-0.6-0.1-1-0.4-0.9-1C35.2,10.8,35.6,10.5,36.1,10.5z"/>
	<path d="M46,5.8c0.5,0,0.9,0.3,0.9,0.8c0,0.5-0.3,0.8-0.8,0.9c-2.1,0.3-4.3,0.5-6.4,0.8c-1.1,0.1-2.2,0.2-3.3,0.4
		c-0.6,0.1-1.1-0.2-1.1-0.7c-0.1-0.5,0.3-0.9,0.9-1c3.2-0.4,6.5-0.8,9.8-1.2C45.8,5.8,45.9,5.8,46,5.8z"/>
</g>
</svg>
