<svg width="0" height="0" class="hidden">
  <symbol  id="anchor" xmlns="http://www.w3.org/2000/svg" x="0px" y="0px" xml:space="preserve" viewBox="0 0 48 59.13">
    
		<path d="M23.6,59.1c-0.2-0.3-0.5-0.6-0.7-1c-1.5-2.3-3.6-4-6-5.3c-1.9-1-3.8-1.9-5.6-2.9c-3.1-1.8-5.4-4.5-7.1-7.7
			c-0.2-0.3-0.3-0.6-0.5-0.9c0,0,0-0.1-0.1-0.1c-0.7,0.3-1.4,0.7-2.2,1c-0.4,0.2-0.8,0.3-1.1,0C0,42,0,41.6,0,41.1
			c0.6-4.4,1.2-8.8,1.8-13.3c0.1-0.5,0.2-0.9,0.7-1c0.5-0.1,0.8,0.2,1,0.5c2.5,3.4,4.9,6.7,7.4,10.1c0.6,0.9,0.4,1.5-0.7,1.7
			c-0.9,0.2-1.8,0.3-2.7,0.5c-0.6,0.1-1-0.2-1.1-0.7c-0.1-0.5,0.2-0.9,0.8-1c0.5-0.1,1-0.2,1.6-0.3C7,35.1,5.2,32.6,3.3,30
			c-0.5,3.4-0.9,6.7-1.4,10.1c0.5-0.2,1-0.5,1.4-0.7C4.3,39,4.6,39.1,5,40c1,2.2,2.3,4.1,3.9,5.8c1.6,1.6,3.5,2.8,5.4,3.8
			c1.7,0.9,3.4,1.7,5,2.7c1.8,1.1,3.2,2.5,4.5,4.2c0.1,0,0.1,0,0.2-0.1c1.9-2.7,4.5-4.4,7.4-5.8c2-1,4-1.9,5.8-3.3
			c2.4-1.9,4.1-4.2,5.4-6.9c0.8-1.5,0.8-1.5,2.3-0.8c0.3,0.1,0.6,0.3,1,0.5c-0.5-3.4-0.9-6.7-1.3-10.1c-1.9,2.6-3.7,5.1-5.6,7.7
			c0.6,0.1,1.1,0.2,1.5,0.3c0.8,0.2,1.1,0.7,0.7,1.5c-1.2,2-2.9,3.5-4.9,4.8c-2.2,1.4-4.5,2.3-7,3c-1.8,0.4-3.4-0.8-3.4-2.6
			c0-5.9,0-11.7,0-17.6c0-0.6,0.3-1,0.8-1c0.5,0,0.9,0.4,0.9,1c0,3.2,0,6.5,0,9.7c0,2.6,0,5.1,0,7.7c0,0.9,0.5,1.3,1.4,1.1
			c3.5-0.9,6.7-2.4,9.3-5c0.2-0.2,0.4-0.4,0.6-0.7c0.1-0.1,0.1-0.2,0.3-0.4c-0.6-0.1-1.1-0.2-1.6-0.3c-0.8-0.2-1.1-0.8-0.6-1.5
			c2.5-3.5,5.1-6.9,7.6-10.4c0.2-0.4,0.6-0.6,1-0.4c0.3,0.1,0.6,0.5,0.6,0.8c0.6,4.5,1.2,9.1,1.8,13.7c0.1,0.8-0.5,1.3-1.3,1
			c-0.8-0.3-1.6-0.7-2.4-1.1c-0.3,0.5-0.5,0.9-0.8,1.4c-2.1,3.8-5.1,6.6-9,8.5c-1.7,0.9-3.5,1.8-5.1,2.7c-1.9,1.1-3.3,2.6-4.5,4.5
			c-0.2,0.3-0.4,0.6-0.7,0.8C24.1,59.1,23.9,59.1,23.6,59.1z"/>
		<path d="M24.9,0c0.3,0.1,0.5,0.2,0.8,0.2c3,0.9,4.9,2.8,5.5,5.9c0.5,3-0.6,5.5-3.1,7.3c-0.3,0.2-0.5,0.4-0.4,0.8c0,0.5,0,0.9,0,1.5
			c1.4,0,2.7,0,4,0c0.1,0,0.3-0.1,0.4-0.2c1.6-1.1,3.6-0.8,4.8,0.6c1.2,1.4,1.2,3.4,0,4.8c-1.2,1.4-3.3,1.6-4.8,0.6
			c-0.2-0.1-0.5-0.2-0.8-0.3c-1.2,0-2.4,0-3.6,0c0,0.4,0,0.8,0,1.2c0,0.2,0,0.5,0,0.8c-0.1,0.5-0.4,0.8-0.9,0.8
			c-0.5,0-0.8-0.3-0.8-0.8c0-0.6,0-1.3,0-1.9c0-1,0.7-1.7,1.7-1.7c1.5,0,2.9,0,4.4,0c0.3,0,0.6,0.2,0.8,0.4c0.9,0.7,2,0.7,2.7,0
			c0.7-0.8,0.7-1.9,0-2.6c-0.8-0.8-1.8-0.8-2.7,0c-0.2,0.2-0.6,0.4-0.9,0.4c-1.4,0-2.8,0-4.2,0c-1.1,0-1.8-0.7-1.8-1.8
			c0-0.6,0-1.1,0-1.7c0-0.8,0.3-1.4,1-1.9c1.6-1,2.5-2.5,2.7-4.4c0.3-2.9-2-5.6-5-5.9c-2.9-0.3-5.8,1.9-6.1,4.8
			c-0.3,2.4,0.6,4.3,2.6,5.6c0.7,0.5,1.1,1.1,1,1.9c0,0.6,0,1.1,0,1.7c0,1.1-0.8,1.8-1.8,1.8c-1.4,0-2.8,0-4.2,0
			c-0.3,0-0.7-0.2-1-0.4c-0.6-0.5-1.3-0.6-2-0.3C12.4,17,12,17.6,12,18.4c0,0.8,0.3,1.4,1,1.8s1.5,0.2,2.2-0.2
			c0.3-0.2,0.8-0.4,1.2-0.4c1.3,0,2.5,0,3.8,0c1.3,0,2,0.7,2,2c0,7.6,0,15.3,0,22.9c0,2.1-1.6,3.3-3.6,2.8c-3-0.8-5.9-2-8.3-4
			C10,43,9.8,42.9,9.6,42.7c-0.4-0.4-0.4-0.8-0.1-1.2c0.3-0.4,0.8-0.4,1.2-0.1c0.8,0.6,1.6,1.2,2.4,1.7c1.8,1.1,3.8,1.8,5.8,2.3
			c0.9,0.2,1.5-0.2,1.5-1.2c0-7.5,0-15.1,0-22.6c0-0.1,0-0.3,0-0.5c-1,0-1.9,0-2.9,0c-0.7,0-1.3,0.1-1.9,0.5
			c-1.5,0.9-3.5,0.5-4.6-0.9c-1.1-1.4-1.1-3.4,0.1-4.7c1.2-1.4,3.1-1.6,4.7-0.7c0.3,0.2,0.8,0.3,1.2,0.3c1.1,0,2.2,0,3.4,0
			c0-0.6,0-1.2,0-1.8c0-0.1-0.1-0.3-0.3-0.4c-2.7-1.9-3.9-4.5-3.2-7.7c0.7-3.2,2.8-5.1,6.1-5.8c0,0,0.1-0.1,0.1-0.1
			C23.7,0,24.3,0,24.9,0z"/>
		<path d="M24,11c-2,0-3.6-1.6-3.6-3.6c0-2,1.6-3.6,3.6-3.6c2,0,3.7,1.7,3.6,3.7C27.6,9.4,26,11,24,11z M24,9.2
			c1.1,0,1.9-0.8,1.9-1.9c0-1-0.9-1.9-1.9-1.9c-1,0-1.9,0.9-1.9,1.9C22.1,8.4,22.9,9.2,24,9.2z"/>
    
  </symbol>
  <symbol  id="boat" xmlns="http://www.w3.org/2000/svg" x="0px" y="0px" xml:space="preserve" viewBox="0 0 48 48">
    
      <path class="st0" d="M5.4,31.6c-1.1,0-1.8,0.3-2.6,1c-0.5,0.5-1,1-1.8,1c-0.5,0-0.8,0.4-0.7,0.9c0,0.4,0.4,0.7,0.9,0.7
		c0.6,0,1.2-0.2,1.7-0.5c0.3-0.2,0.6-0.5,0.9-0.8c1-0.9,1.9-0.9,2.8,0C6.9,34,7,34.2,7.2,34.3c1.4,1.2,3.2,1.2,4.6,0
		c0.2-0.2,0.3-0.3,0.5-0.5c0.9-0.9,1.8-0.9,2.7,0c0.2,0.2,0.3,0.3,0.5,0.5c1.4,1.2,3.2,1.2,4.6,0c0.3-0.2,0.5-0.5,0.8-0.8
		c0.6-0.5,1.4-0.5,2.1,0c0.3,0.2,0.5,0.5,0.8,0.7c0.5,0.3,1,0.7,1.5,0.8c1.4,0.4,2.5,0,3.5-1.1c0.6-0.7,1.4-1,2.3-0.7
		c0.5,0.1,0.9-0.1,1-0.6c0.1-0.4-0.1-0.8-0.6-0.9c-1.1-0.4-2.1-0.3-3,0.4c-0.4,0.3-0.7,0.6-1.1,0.9c-0.8,0.7-1.6,0.7-2.4,0
		c-0.2-0.2-0.4-0.4-0.7-0.6c-1.3-1.2-3-1.3-4.4-0.2c-0.3,0.2-0.6,0.5-0.8,0.8c-0.8,0.7-1.7,0.8-2.6,0c-0.2-0.2-0.4-0.4-0.6-0.6
		c-1.4-1.2-3.2-1.2-4.6,0c-0.2,0.2-0.4,0.4-0.6,0.6c-0.8,0.7-1.6,0.7-2.4,0c-0.2-0.2-0.4-0.4-0.7-0.6C7,31.9,6.2,31.6,5.4,31.6z
		 M42.9,35.2c1,0,1.8-0.4,2.5-1c0.5-0.5,1-0.9,1.8-1c0.5,0,0.7-0.4,0.7-0.8c0-0.4-0.4-0.7-0.8-0.7c-0.6,0-1.2,0.1-1.7,0.5
		c-0.5,0.3-0.9,0.8-1.3,1.1c-0.6,0.5-1.5,0.5-2.1,0c-0.3-0.2-0.5-0.5-0.8-0.7c-1.1-1-2.7-1.2-3.9-0.5c-0.5,0.3-0.9,0.7-1.3,1
		c-0.8,0.7-1.4,0.8-2.3,0.4c-0.5-0.2-1-0.1-1.2,0.3c-0.2,0.4-0.1,0.8,0.4,1.1c1.2,0.6,2.4,0.6,3.5-0.1c0.4-0.2,0.7-0.5,1-0.8
		c0.9-0.8,1.8-0.8,2.7,0c0.2,0.2,0.4,0.3,0.5,0.5C41.2,34.8,42,35.2,42.9,35.2z M38.8,22C38.8,22,38.8,22,38.8,22
		c0.4,0,0.8,0.1,1.2,0c0.4,0,0.7-0.3,0.7-0.8c0-0.4-0.2-0.7-0.7-0.8c-0.8,0-1.5-0.1-2.3-0.1c-0.5,0-0.8,0.4-0.8,0.8
		c0,0.4,0.3,0.7,0.8,0.8C38.1,22,38.5,22,38.8,22z"/>
		<path d="M0,23.2c0.2-0.4,0.5-0.6,0.9-0.7c1.6-0.3,3.1-0.6,4.7-1c-0.2-1-0.3-2-0.5-3c-0.2,0.1-0.4,0.1-0.5,0.2
			c-0.6,0.2-1.1,0.1-1.3-0.4c-0.2-0.5,0.1-0.9,0.7-1.1c1.7-0.6,3.4-1.2,5.2-1.7c3.8-1.1,7.6-2,11.6-2.5c2.3-0.3,4.6-0.4,6.9-0.1
			c0.3,0,0.5,0.2,0.8,0.4c1.8,1.4,3.5,2.9,5.3,4.3c0.2,0.2,0.5,0.3,0.8,0.3c2.7,0.1,5.3,0,8,0.2c1.6,0.1,3.2,0.5,4.7,0.8
			c0.4,0.1,0.7,0.3,0.7,0.7c0,0.3-0.2,0.6-0.3,0.7c-0.3,0.1-0.6,0.1-1.1,0.2c-1.5,2.5-3.3,4.9-5.5,7c0.2,0.2,0.4,0.4,0.6,0.5
			c0.8,0.8,1.7,0.8,2.6,0c0.4-0.3,0.7-0.6,1.1-0.9c0.5-0.4,1.1-0.5,1.7-0.5c0.5,0,0.8,0.3,0.9,0.7c0,0.4-0.2,0.8-0.7,0.8
			c-0.8,0-1.4,0.6-1.9,1.1c-1.1,1-2.7,1.3-3.9,0.5c-0.5-0.3-0.9-0.7-1.3-1.1c-0.5-0.4-1-0.6-1.6-0.5c-0.4,0.1-0.8,0.4-1.1,0.6
			c-0.6,0.5-1.1,1-1.9,1.2c-1.2,0.3-2.2,0-3.1-0.8c-0.2-0.2-0.5-0.4-0.7-0.6c-0.8-0.7-1.7-0.7-2.5,0c-0.2,0.2-0.4,0.4-0.6,0.5
			c-1.5,1.3-3.3,1.3-4.7,0c-0.2-0.2-0.3-0.3-0.5-0.5c-0.8-0.7-1.7-0.8-2.6,0c-0.3,0.3-0.6,0.6-1,0.8c-1.4,1-3.2,0.8-4.4-0.4
			c-0.3-0.4-0.4-0.8-0.1-1.1c0.3-0.3,0.7-0.3,1.1,0c0.2,0.2,0.4,0.4,0.7,0.5c0.6,0.3,1.2,0.2,1.7-0.2c0.3-0.2,0.5-0.5,0.8-0.7
			c1.4-1.3,3.3-1.3,4.7,0c0.2,0.2,0.4,0.3,0.5,0.5c0.8,0.7,1.7,0.7,2.5,0c0.2-0.2,0.4-0.4,0.7-0.6c1.4-1.2,3.1-1.2,4.5,0
			c0.3,0.2,0.5,0.5,0.8,0.7c0.7,0.6,1.5,0.5,2.2,0c0.2-0.2,0.4-0.4,0.6-0.5c0.8-0.8,1.8-1.2,3-1c0.2,0,0.4,0,0.5-0.1
			c2.1-1.9,3.8-4.1,5.3-6.6c-0.9-0.1-1.8-0.2-2.7-0.3c-4.8-0.4-9.6-0.2-14.4,0.2c-5.5,0.5-11,1.3-16.5,2.2c-0.1,0-0.1,0-0.1,0
			c-0.7,0.1-1.1-0.1-1.1-0.6c-0.1-0.5,0.2-0.9,0.9-1c2.4-0.4,4.8-0.8,7.2-1.1c0.1,0,0.1,0,0.3-0.1c-0.5-1.4-0.9-2.8-1.4-4.1
			c-3.6,0.7-7.1,1.6-10.6,2.8c0.2,1.1,0.4,2.2,0.6,3.3c0.3,0,0.5-0.1,0.7-0.1c0.6-0.1,1,0.1,1,0.6c0.1,0.5-0.2,0.9-0.8,1
			c-1.3,0.3-2.6,0.5-4,0.8c-0.8,0.1-1.5,0.3-2.4,0.5c0.4,1.2,0.7,2.4,1.1,3.6c0.6-0.5,1.2-0.9,2-1c1-0.1,1.9,0.2,2.7,0.9
			c0.2,0.2,0.5,0.5,0.8,0.7c0.7,0.6,1.6,0.6,2.3,0c0.4-0.4,0.8-0.7,1.2-1.1c0.5-0.4,1.1-0.5,1.8-0.5c0.4,0,0.8,0.3,0.8,0.7
			c0,0.4-0.2,0.8-0.7,0.8c-0.9,0-1.4,0.6-1.9,1.1c-0.9,0.8-2,1.2-3.1,0.9c-0.5-0.1-1.1-0.4-1.5-0.8c-1.4-1.4-2.4-1.4-3.8,0
			c-0.6,0.6-1.3,0.9-2.1,0.9c-0.6,0-0.9-0.2-1-0.7c-0.1-0.5,0.2-0.8,0.9-0.9c0.1,0,0.2,0,0.3-0.1c0-0.2-0.1-0.3-0.1-0.5
			c-0.4-1.4-0.8-2.7-1.2-4.1c0-0.1-0.1-0.3-0.2-0.4C0,23.5,0,23.4,0,23.2z M20.2,19.1c3.8-0.4,7.6-0.8,11.4-1.2
			c-0.1-0.1-0.2-0.2-0.3-0.2c-1.2-1-2.4-2-3.7-3c-0.2-0.1-0.4-0.2-0.6-0.2c-2-0.2-4-0.1-6,0.2c-0.8,0.1-1.5,0.2-2.2,0.3
			C19.3,16.4,19.7,17.8,20.2,19.1z"/>
		<path d="M5.4,31.6c0.8,0,1.6,0.3,2.2,0.9c0.2,0.2,0.4,0.4,0.7,0.6c0.8,0.7,1.6,0.6,2.4,0c0.2-0.2,0.4-0.4,0.6-0.6
			c1.4-1.2,3.2-1.2,4.6,0c0.2,0.2,0.4,0.4,0.6,0.6c0.8,0.7,1.7,0.7,2.6,0c0.3-0.2,0.5-0.5,0.8-0.8c1.4-1,3.1-1,4.4,0.2
			c0.2,0.2,0.4,0.4,0.7,0.6c0.8,0.7,1.6,0.6,2.4,0c0.4-0.3,0.7-0.6,1.1-0.9c0.9-0.7,2-0.8,3-0.4c0.5,0.1,0.7,0.5,0.6,0.9
			c-0.1,0.4-0.5,0.7-1,0.6c-0.9-0.3-1.7,0-2.3,0.7c-1,1-2.1,1.5-3.5,1.1c-0.5-0.2-1-0.5-1.5-0.8c-0.3-0.2-0.5-0.5-0.8-0.7
			c-0.6-0.5-1.4-0.5-2.1,0c-0.3,0.2-0.6,0.5-0.8,0.8c-1.4,1.2-3.2,1.2-4.6,0c-0.2-0.2-0.3-0.3-0.5-0.5c-0.9-0.8-1.8-0.8-2.7,0
			c-0.2,0.2-0.3,0.3-0.5,0.5c-1.4,1.2-3.2,1.2-4.6,0C7,34.1,6.9,34,6.7,33.9c-1-0.9-1.8-0.9-2.8,0c-0.3,0.3-0.6,0.5-0.9,0.8
			c-0.5,0.4-1.1,0.5-1.7,0.5c-0.5,0-0.9-0.2-0.9-0.7c-0.1-0.5,0.2-0.8,0.7-0.9c0.8-0.1,1.3-0.5,1.8-1C3.7,31.9,4.4,31.6,5.4,31.6z"/>
		<path d="M42.9,35.2c-0.9,0-1.6-0.3-2.3-0.9c-0.2-0.2-0.4-0.3-0.5-0.5c-0.9-0.8-1.8-0.8-2.7,0c-0.3,0.3-0.6,0.6-1,0.8
			c-1.1,0.8-2.3,0.8-3.5,0.1c-0.5-0.3-0.6-0.7-0.4-1.1c0.2-0.4,0.6-0.5,1.2-0.3c0.9,0.4,1.5,0.3,2.3-0.4c0.4-0.4,0.8-0.8,1.3-1
			c1.2-0.7,2.7-0.5,3.9,0.5c0.3,0.2,0.5,0.5,0.8,0.7c0.6,0.5,1.5,0.5,2.1,0c0.5-0.4,0.9-0.8,1.3-1.1c0.5-0.4,1.1-0.5,1.7-0.5
			c0.5,0,0.8,0.3,0.8,0.7c0,0.4-0.2,0.8-0.7,0.8c-0.8,0-1.3,0.5-1.8,1C44.7,34.8,43.9,35.2,42.9,35.2z"/>
		<path d="M38.8,22c-0.3,0-0.7,0-1,0c-0.5,0-0.8-0.3-0.8-0.8c0-0.4,0.3-0.8,0.8-0.8c0.8,0,1.5,0,2.3,0.1c0.4,0,0.7,0.4,0.7,0.8
			c0,0.4-0.2,0.7-0.7,0.8C39.6,22.1,39.2,22,38.8,22C38.8,22,38.8,22,38.8,22z"/>
    
  </symbol>
  <symbol  id="coral" xmlns="http://www.w3.org/2000/svg" x="0px" y="0px" xml:space="preserve" viewBox="0 0 48 48.64">
    
    	<path d="M42.5,42.4c0.3,0.7,0.1,1.3-0.4,1.9c-0.2,0.3-0.5,0.6-0.6,0.8c0.7,0.1,1.4,0.3,2.1,0.4c0.2,0,0.5-0.1,0.7-0.2
		c1.2-0.5,2.1-0.3,2.8,0.8c0.4,0.5,0.6,1.2,0.8,1.8c0.2,0.4-0.1,0.8-0.6,0.8c-0.1,0-0.3,0-0.4,0c-15,0-30.1,0-45.2,0
		c-0.1,0-0.2,0-0.2,0c-0.4,0-0.7-0.1-0.8-0.5s0.2-0.6,0.6-0.7c1.5-0.3,2.9-1,4.2-1.8c0.1-0.1,0.3-0.2,0.3-0.4c1.3-3,2.5-6,3.1-9.2
		c0.1-0.3,0.1-0.7,0.1-1c0-0.7-0.2-1.2-0.8-1.5c-0.1-0.1-0.3-0.2-0.4-0.3c-1.8-0.8-3.3-2-4.7-3.4c-0.4-0.4-0.9-0.7-1.3-1.1
		c-0.6-0.5-0.8-1.3-0.4-2c0.4-0.6,1.2-0.9,1.9-0.5c1.1,0.5,2.2,1.2,3.4,1.8c0.8-1,1.6-2.1,1.3-3.6C8.1,23.5,8,22.7,8,21.9
		c0-0.9-0.3-1.6-1.1-2.1c-0.7-0.4-1.4-0.8-2.1-1.1c-0.9-0.5-1.9-0.9-2.8-1.3c-0.9-0.5-1.5-1.2-1.9-2.1c-0.4-1,0.1-1.8,1.1-1.6
		C2.1,13.7,3,14,3.8,14.3c0.8,0.3,1.5,0.7,2.3,0.9c0.6,0.2,0.8-0.1,0.7-0.7c-0.1-0.2-0.2-0.3-0.2-0.5c-1.1-1.9-2.2-3.7-3.1-5.7
		C2.7,6.7,2.2,5,1.7,3.3c-0.3-1-0.1-1.9,0.6-2.7c0.7-0.8,1.6-0.8,2.1,0.1c0.4,0.7,0.7,1.5,1,2.2c0.4,0.9,0.7,1.7,1.1,2.6
		c0.1,0.2,0.2,0.3,0.3,0.5C7,5.5,7.1,5,7.2,4.6c0.1-0.3,0.2-0.7,0.3-1C8.1,2.4,9.2,2,10.3,2.5c1.1,0.5,1.6,1.8,1.1,2.9
		c-0.3,0.6-0.8,1.2-1.2,1.7c-0.9,1-1.2,2.1-1.1,3.4c0.1,0.3,0.1,0.7,0.3,0.9c0.8,0.9,1.4,1.9,1.7,3.2c0.5-0.6,0.9-1.1,1.4-1.7
		c0.4-0.5,1-0.8,1.7-0.6c1.2,0.3,1.6,1.5,1,2.6c-0.9,1.4-1.8,2.8-2.7,4.2c-0.4,0.5-0.4,0.9,0,1.5c0.7,0.9,0.8,1.9,0.6,3
		c-0.2,1.3-0.1,2.5,0.4,3.6c0.3,0.9,0.7,1.7,1.1,2.6c0.1,0.1,0.2,0.2,0.3,0.2c0.1-0.1,0.1-0.2,0.1-0.3c0.1-0.8,0.2-1.6,0.3-2.4
		c0.1-0.4,0.2-0.8,0.4-1.2c0.2-0.4,0.2-0.7,0-1c-0.9-1.5-1.8-2.9-2.8-4.4c-0.3-0.4-0.4-0.9-0.3-1.4c0.1-0.6,0.6-1.1,1.2-1.3
		c0.6-0.2,1.2,0,1.7,0.5c0.5,0.5,0.9,1.1,1.4,1.7c0.1-0.2,0.1-0.3,0.2-0.5c0.4-0.7,0.6-1.5,1.2-2.2c1-1.2,1-2.5,0.4-3.8
		c-0.2-0.5-0.6-0.9-0.9-1.3c-0.4-0.5-0.8-1-1-1.6c-0.4-0.8-0.2-1.6,0.3-2.3c0.5-0.6,1.2-0.9,2-0.7c0.7,0.1,1.1,0.6,1.4,1.2
		c0.2,0.6,0.4,1.2,0.6,1.7c0.1,0.2,0.1,0.4,0.2,0.6c0,0,0.1,0,0.2,0.1c0.3-0.6,0.6-1.2,0.9-1.9c0.3-0.8,0.5-1.6,0.8-2.4
		c0.2-0.4,0.4-0.8,0.7-1.1c0.5-0.6,1.3-0.6,1.9-0.1c0.9,0.9,1,2,0.7,3.1c-0.7,2.8-1.8,5.5-3.3,8c-0.5,0.8-1,1.7-1.5,2.5
		c-0.1,0.1-0.2,0.2-0.2,0.3c0,0.3-0.1,0.6,0,0.8c0,0.1,0.5,0.1,0.7,0c0.7-0.3,1.4-0.6,2.1-0.9c0.7-0.3,1.5-0.5,2.3-0.7
		c0.2,0,0.4,0,0.6,0c0.8,0.1,1.2,0.7,0.9,1.5s-0.8,1.5-1.5,1.9c-0.8,0.5-1.6,0.9-2.4,1.3c-0.8,0.4-1.7,0.8-2.5,1.2
		c-1,0.5-1.6,1.3-1.5,2.6c0,0.6,0,1.2-0.1,1.8c-0.3,1.6,0.2,3,1.4,4.2c0.5-0.3,1-0.7,1.5-1c0.7-0.4,1.4-0.4,1.9,0.1
		c0.5,0.5,0.6,1.2,0.2,2c-1.2,2.1-2.9,3.3-5.4,3.5c-1.8,0.1-2.5,0.8-3.1,2.6c0.5-0.1,1-0.2,1.6-0.2c2.7-0.3,5.2,0,7.5,1.7
		c0.8,0.6,1.8,0.6,2.8,0.5c1.1-0.1,2.2-0.3,3.3-0.3c0.5,0,1.1,0.1,1.7,0.2c0.2,0,0.5,0,0.8,0c-0.3-0.6-0.5-1.1-0.7-1.7
		c-0.4-0.9-0.8-1.8-1-2.8c-0.1-0.5-0.1-1.1,0.1-1.6c0.3-1,1.3-1.2,2.1-0.5c0.2,0.2,0.3,0.4,0.5,0.6c0.2,0.2,0.3,0.4,0.5,0.7
		c0.5-0.8,0.6-1.6,0.6-2.4c0.1-1,0.2-2,0.7-3c0.2-0.3,0.3-0.6,0.5-0.8c0.8-1,0.8-2.2-0.1-3.2c-0.4-0.4-0.7-0.9-1-1.4
		c-0.6-1.2,0.4-2.6,1.7-2.5c0.7,0.1,1.1,0.5,1.3,1c0.2,0.4,0.3,0.8,0.5,1.3c0.2-0.4,0.3-0.8,0.5-1.1c0.3-0.7,0.5-1.5,0.8-2.1
		c0.6-1.1,1.6-1.1,2.3,0c0.4,0.7,0.3,1.4,0.2,2.1c-0.6,2.6-1.9,5-3.3,7.2c-0.1,0.2-0.2,0.5-0.3,0.7c0,0,0.1,0.1,0.1,0.1
		c0.3-0.1,0.6-0.2,1-0.3c0.8-0.3,1.6-0.6,2.4-0.9c0.2-0.1,0.6,0,0.8,0c0.5,0.1,0.7,0.5,0.6,1c-0.2,0.7-0.6,1.3-1.2,1.7
		c-0.7,0.4-1.5,0.8-2.2,1.1c-0.5,0.3-1.1,0.5-1.6,0.8c-0.5,0.3-0.7,0.7-0.7,1.3c0,0.6,0,1.1-0.1,1.7c-0.2,1,0.2,1.8,0.9,2.6
		C40.6,42.2,41.4,41.3,42.5,42.4C42.5,42.3,42.5,42.3,42.5,42.4z M27,20.6c-0.2,0-0.2,0-0.3,0c-1,0.4-2.1,0.8-3.1,1.2
		c-0.6,0.2-1.2,0.4-1.8,0.5c-0.9,0.1-1.5-0.5-1.5-1.3c0-0.5,0.1-1.1,0.4-1.5c1-1.9,2.2-3.6,3-5.6c0.7-1.6,1.2-3.4,1.7-5.1
		c0.2-0.6,0-1.2-0.6-1.7c-0.2,0.5-0.5,1-0.7,1.5c-0.4,1.1-0.8,2.1-1.2,3.2c-0.2,0.5-0.6,0.9-0.9,1.4c0.1,0.2,0.4,0.3,0.4,0.5
		c0.1,0.2,0,0.6-0.1,0.7c-0.1,0.1-0.6,0.1-0.7,0c-0.4-0.4-0.9-0.9-1.1-1.4c-0.3-0.5-0.3-1.1-0.5-1.7c-0.1-0.5-0.3-1-0.5-1.5
		c-0.3-0.5-0.9-0.6-1.3-0.1c-0.3,0.4-0.4,0.8-0.1,1.2c0.2,0.4,0.5,0.8,0.8,1.1c0.3,0.4,0.7,0.8,0.9,1.2c1,1.6,1,4.1-0.4,5.4
		c-0.4,0.4-0.7,1.1-0.9,1.7c-0.5,1.4-0.5,1.1,0.6,2c0.1,0.1,0.2,0.1,0.2,0.2c0.1,0.2,0.2,0.5,0.1,0.7c-0.1,0.2-0.5,0.2-0.7,0.3
		c-0.1,0-0.3-0.1-0.5-0.3c-0.8-0.7-1.5-1.4-2.3-2.2c-0.4-0.4-0.8-1-1.2-1.4c-0.1-0.1-0.5-0.2-0.6-0.1c-0.1,0.1-0.2,0.4-0.1,0.6
		c0,0.1,0.1,0.3,0.2,0.4c0.9,1.4,1.8,2.8,2.7,4.2c0.5,0.7,0.5,1.4,0,2.1c-0.1,0.2-0.3,0.5-0.3,0.7c-0.1,0.8-0.2,1.6-0.3,2.4
		c-0.1,0.8-0.5,1.3-1.2,1.4c-0.6,0.1-1.2-0.2-1.5-0.9c-0.4-0.8-0.8-1.7-1.1-2.5c-0.5-1.4-0.8-2.9-0.5-4.5c0.2-0.8-0.1-1.6-0.6-2.3
		c-0.6-0.8-0.6-1.4-0.1-2.3c0.8-1.3,1.6-2.6,2.4-3.9c0.1-0.2,0.4-0.4,0.4-0.7c0.1-0.2-0.1-0.5-0.1-0.7c-0.2,0.1-0.5,0.1-0.6,0.2
		c-0.3,0.2-0.5,0.6-0.7,0.8c-0.9,1.1-1.8,2.1-3,2.9c-0.3,0.2-0.6,0.2-0.9-0.1c-0.2-0.4-0.1-0.6,0.2-0.9c0.3-0.2,0.5-0.4,0.8-0.6
		c0.2-0.2,0.3-0.3,0.2-0.6c-0.2-1-0.7-2-1.3-2.8c-0.3-0.4-0.6-0.9-0.8-1.4C7.6,9.3,8.1,7.8,9.2,6.4c0.4-0.5,0.8-1,1.1-1.5
		c0.3-0.5,0-1.1-0.5-1.3c-0.5-0.2-0.9,0-1.2,0.6c-0.2,0.5-0.3,1-0.4,1.5c-0.2,1-0.5,2-1.4,2.7C6.5,8.6,6.2,8.7,5.9,8.4
		c-0.3-0.3-0.2-0.6,0-0.9c0.1-0.1,0.2-0.2,0.3-0.4C5.4,6,4.8,4.8,4.4,3.4C4.3,2.9,4.1,2.5,3.9,2C3.8,1.7,3.6,1.5,3.5,1.2
		c-0.7,0.6-0.7,1.3-0.5,2c0.5,2,1.2,4,2.2,5.9c0.8,1.6,1.8,3.1,2.6,4.6c0.4,0.7,0.5,1.5,0,2.2c-0.5,0.7-1.2,0.7-1.9,0.4
		c-0.4-0.1-0.9-0.3-1.3-0.5c-0.8-0.3-1.5-0.6-2.3-0.9c-0.3-0.1-0.6-0.1-1-0.2c0.4,0.8,0.8,1.3,1.5,1.6c0.8,0.4,1.6,0.7,2.4,1.1
		C6,18,6.9,18.4,7.7,18.9c1,0.7,1.5,1.7,1.5,2.9c0,0.6,0,1.3,0.1,1.9c0.3,1.7-0.1,3.2-1.2,4.5C8.1,28.3,8,28.4,8,28.5
		c0.6,0.1,0.9,0.1,1.1-0.2c0.3-0.4,0.6-0.5,0.9-0.2c0.3,0.2,0.3,0.6,0,1c-0.4,0.5-0.9,0.7-1.5,0.7c-1.1,0-1.9-0.5-2.8-1
		c-0.9-0.5-1.8-1-2.6-1.5c-0.1-0.1-0.3,0-0.5,0c0.1,0.2,0.1,0.4,0.2,0.5c0.8,0.7,1.5,1.4,2.3,2c0.8,0.6,1.6,1.2,2.4,1.7
		c0.5,0.3,1.1,0.6,1.6,0.9c0.8,0.5,1.2,1.3,1.2,2.3c0,0.6-0.1,1.3-0.2,1.9c-0.5,2.4-1.4,4.7-2.3,7c-0.1,0.2-0.1,0.3-0.2,0.6
		c0.3-0.2,0.5-0.3,0.6-0.4c1.2-0.7,2.4-1.4,3.8-1.7c0.7-0.2,1.4-0.4,2.1-0.6c0.7-0.2,1-0.5,1.3-1.2c0.7-2,1.9-3.3,4.1-3.3
		c2,0,3.5-1.1,4.4-2.8c0.1-0.1,0-0.3,0-0.5c-0.2,0-0.4,0-0.5,0.1c-0.4,0.2-0.7,0.5-1.1,0.7c-0.7,0.3-1.5,0.7-2.3,0.9
		c-0.8,0.2-1.7-0.2-2-0.8c-0.2-0.3-0.1-0.6,0.2-0.8c0.3-0.2,0.6-0.1,0.8,0.2c0.3,0.5,0.7,0.4,1.2,0.3c-0.2-0.3-0.4-0.5-0.5-0.7
		c-0.8-1.2-1.1-2.5-0.9-3.9c0.1-0.7,0.2-1.4,0.1-2.1c0-1.3,0.5-2.3,1.5-3c0.9-0.5,1.8-1,2.7-1.4c0.8-0.4,1.7-0.8,2.5-1.3
		C26.3,21.7,26.7,21.2,27,20.6z M4.9,47.4c14,0,27.8,0,41.7,0c-0.4-1.2-0.8-1.3-1.9-0.9c-0.5,0.2-1,0.1-1.5,0.1
		c-0.5,0-1-0.1-1.5-0.1c-0.5,0-0.8-0.1-1.1-0.5c-0.3-0.5-0.3-1.1,0.1-1.6c0.3-0.4,0.6-0.8,0.9-1.2c-0.4,0.1-0.8,0.4-1.1,0.6
		c-0.9,0.6-1.9,0.8-2.9,0.3c-0.2-0.1-0.4-0.2-0.7-0.2c-2.2-0.1-4.5-0.1-6.5,1.1c-0.2,0.1-0.5,0.1-0.6,0c-0.1-0.1-0.2-0.4-0.2-0.6
		c0-0.1,0-0.2,0-0.3c-0.4,0-0.8,0.1-1.1,0.1c-1.1,0.1-2.2,0-3.2-0.6c-2-1.4-4.2-1.9-6.5-1.6c-1,0.1-2.1,0.4-3.1,0.6
		c0,0.1,0,0.1,0,0.2c1.2,0.5,2.3,1.1,3.6,1.6c1,0.4,2,0.7,3,1c0.4,0.1,0.6,0.3,0.5,0.7c-0.1,0.4-0.4,0.5-0.8,0.4
		c-0.1,0-0.2-0.1-0.3-0.1c-1.9-0.5-3.7-1.3-5.5-2.2c-1.8-0.9-3.6-1-5.3,0C8.7,45.1,6.8,46.3,4.9,47.4z M40.5,28c0,0-0.1,0-0.1,0
		c0,0,0,0.1,0.1,0.1c0.3,0.3,0.4,0.6,0,0.9c-0.3,0.3-0.6,0.1-1-0.1c-0.5-0.4-0.7-1-0.9-1.6c-0.1-0.4-0.2-0.9-0.3-1.3
		c-0.1-0.3-0.2-0.6-0.7-0.5c-0.3,0.1-0.4,0.5-0.2,0.9c0.2,0.3,0.4,0.6,0.7,0.9c1.2,1.4,1.3,3.7,0.2,4.8c-0.6,0.6-0.8,1.4-0.9,2.2
		c-0.1,1-0.3,2-0.5,2.9c-0.2,0.7-0.4,1.3-1.2,1.5c-0.8,0.1-1.2-0.5-1.6-1c-0.2-0.2-0.3-0.4-0.5-0.8c0,0.3-0.1,0.5-0.1,0.7
		c0.2,0.7,0.3,1.3,0.5,2c0.4,1,0.9,2,1.4,3c1,0.2,2.1,0.3,3.2,0.5c0-0.1-0.1-0.2-0.1-0.2c-0.6-0.8-0.8-1.7-0.7-2.7
		c0.1-0.5,0.1-1.1,0.1-1.7c0-1,0.4-1.7,1.1-2.2c0.4-0.3,0.8-0.5,1.2-0.7c0.7-0.3,1.5-0.6,2.2-1c0.4-0.2,0.7-0.5,1-0.8
		c0,0-0.1-0.1-0.1-0.2c-0.3,0.1-0.5,0.2-0.8,0.3c-0.6,0.3-1.3,0.6-1.9,0.8c-0.5,0.2-1.1,0.2-1.5-0.3c-0.4-0.5-0.4-1-0.2-1.5
		c0-0.2,0.2-0.3,0.2-0.5c0.6-1,1.3-2,1.8-3.1c0.6-1.4,1.1-2.9,1.6-4.3c0.1-0.3,0-0.6-0.1-1c0,0-0.1,0-0.2,0
		C41.6,25.3,41.1,26.6,40.5,28z"/>
	<path d="M33.6,19.1c-1.5,0-2.7-1.3-2.7-2.8c0-1.5,1.3-2.7,2.8-2.7c1.5,0,2.7,1.3,2.7,2.8C36.4,17.9,35.2,19.1,33.6,19.1z
		 M33.7,17.9c0.9,0,1.5-0.7,1.5-1.5c0-0.9-0.7-1.5-1.5-1.5c-0.8,0-1.5,0.7-1.5,1.6C32.2,17.2,32.8,17.9,33.7,17.9z"/>
	<path d="M1.1,40c0-1.2,1-2.1,2.2-2.1c1.2,0,2.1,1,2.1,2.2c0,1.2-1,2.1-2.2,2.1C2,42.2,1,41.2,1.1,40z M3.2,39.1
		c-0.5,0-0.9,0.4-0.9,1c0,0.5,0.4,0.9,0.9,0.9c0.5,0,1-0.4,1-1C4.1,39.5,3.7,39.1,3.2,39.1z"/>
	<path d="M16.9,4.6c-1.1,0-2.1-0.9-2.1-2.1c0-1.2,0.9-2.1,2.1-2.1c1.1,0,2.1,0.9,2.1,2.1C19,3.6,18.1,4.6,16.9,4.6z M17.8,2.5
		c0-0.5-0.4-0.9-0.9-0.9C16.4,1.6,16,2,16,2.4c0,0.5,0.4,0.9,0.9,0.9C17.4,3.4,17.8,3,17.8,2.5z"/>
	<path d="M27.3,28.4c1.2,0,2.1,0.9,2.1,2.1c0,1.1-0.9,2-2,2.1c-1.1,0-2.1-0.9-2.1-2.1C25.2,29.3,26.2,28.4,27.3,28.4z M27.3,31.4
		c0.5,0,0.9-0.4,0.9-0.9c0-0.5-0.4-0.9-0.9-0.9c-0.5,0-0.9,0.4-0.9,0.9C26.4,30.9,26.8,31.3,27.3,31.4z"/>
	<path d="M42.5,42.4C42.5,42.3,42.5,42.3,42.5,42.4c-0.4-0.6-0.6-1.2-0.4-1.9c0.2-0.9,1-1.6,1.9-1.6c0.9,0,1.8,0.5,2.1,1.4
		s0,1.8-0.8,2.4c-0.8,0.5-1.7,0.5-2.5-0.1C42.8,42.5,42.7,42.4,42.5,42.4z M44.1,40.1c-0.5,0-0.9,0.4-0.9,0.9c0,0.5,0.4,0.9,0.9,0.9
		c0.5,0,0.9-0.4,0.9-0.9C45,40.5,44.6,40.1,44.1,40.1z"/>
	<path d="M42.5,14.2c0,0.9-0.7,1.7-1.7,1.7c-0.9,0-1.7-0.8-1.7-1.7c0-0.9,0.8-1.7,1.7-1.7C41.7,12.5,42.5,13.3,42.5,14.2z
		 M40.7,14.8c0.1,0,0.1,0,0.2,0c0.1-0.2,0.3-0.4,0.3-0.6c0-0.3-0.2-0.5-0.5-0.5c-0.2,0-0.4,0.3-0.4,0.5
		C40.3,14.4,40.6,14.6,40.7,14.8z"/>
	<path d="M32.4,25.1c0-0.9,0.7-1.6,1.6-1.6c0.9,0,1.6,0.7,1.6,1.6c0,0.9-0.7,1.6-1.6,1.6C33.1,26.7,32.4,26,32.4,25.1z M34,24.5
		c-0.2,0.2-0.4,0.4-0.4,0.5c0,0.2,0.2,0.3,0.3,0.4c0.1-0.1,0.3-0.3,0.4-0.4C34.4,25,34.2,24.8,34,24.5z"/>
	<path class="st0" d="M33.6,25.1c0-0.1,0.2-0.3,0.4-0.5c0.2,0.3,0.4,0.4,0.4,0.5c0,0.2-0.2,0.3-0.4,0.4"/>
	<path d="M12.4,35.1c-0.1,1.7-0.6,3.2-1.1,4.8c-0.1,0.4-0.4,0.5-0.8,0.4c-0.4-0.1-0.5-0.4-0.4-0.8c0.3-1,0.6-2,0.8-3
		c0.2-0.8,0.3-1.7,0.1-2.5c-0.1-0.3,0-0.6,0.4-0.7c0.3-0.1,0.6,0,0.7,0.3C12.2,34.1,12.3,34.6,12.4,35.1z"/>
	<path d="M10.7,41.2c0,0.6-0.4,1.2-0.8,1.1c-0.4,0-0.6-0.2-0.6-0.6c0-0.5,0.4-1.1,0.8-1.1C10.5,40.7,10.7,40.9,10.7,41.2z"/>
    
  </symbol>
  <symbol  id="fishing-rod" xmlns="http://www.w3.org/2000/svg" x="0px" y="0px" xml:space="preserve" viewBox="0 0 48 48">
    
    <path d="M43.4,48c-1.1-0.3-1.9-0.9-2.1-2c-0.1-0.8-0.1-1.7-0.1-2.6c0-0.5,0.7-0.8,1.1-0.5c0.3,0.3,0.7,0.6,1,1
		c0.3,0.4,0.1,0.9-0.6,1.2c-0.2,1.1,0.8,1.7,1.5,1.4c0.5-0.2,0.7-0.6,0.7-1c0-1.1,0-2.2,0-3.2c0-0.1-0.1-0.3-0.3-0.4
		c-0.8-0.4-1.2-1.1-1.2-2s0.4-1.6,1.2-2c0.3-0.2,0.3-0.4,0.3-0.6c0-8,0-15.9,0-23.9c0-1.1,0-2.3,0-3.6c-1.8,2.2-4.1,2.7-6.8,2.5
		c0,0.6,0,1.1,0,1.6c0,1.7-0.6,3.3-1.8,4.6c-1.3,1.4-2.9,2.1-4.8,2.2c-0.5,0-1.1,0-1.6,0c0,0.8,0,1.6-0.1,2.4
		c-0.4,3.2-3.2,5.8-6.5,5.8c-0.3,0-0.6,0-1,0c1.8,2.2,2,4.5,0.5,6.9c0.3,0.3,0.7,0.6,1.1,1.1c0.2-0.3,0.5-0.6,0.8-0.9
		c0.4-0.4,0.8-0.4,1.1-0.1c0.3,0.3,0.3,0.8-0.1,1.2c-0.9,0.9-1.9,1.9-2.8,2.8c-0.4,0.4-0.8,0.4-1.2,0.1c-0.3-0.3-0.3-0.8,0.1-1.2
		c0.2-0.3,0.5-0.5,0.8-0.8c0,0,0-0.1,0-0.1c-0.3-0.3-0.7-0.6-1-1c-2.1,1.4-4.2,1.3-6.5-0.2c-0.1,0.1-0.1,0.3-0.2,0.4
		c-2.9,2.9-5.7,5.8-8.6,8.6c-1.9,1.9-5,1.4-6.1-0.9c-0.2-0.4-0.3-0.8-0.4-1.3c0-0.2,0-0.4,0-0.7c0.2-1.3,1-2.2,1.9-3.1
		c3.5-3.4,6.9-6.9,10.4-10.4c0.7-0.7,1.5-1,2.5-0.7c0.1,0,0.4-0.1,0.5-0.2c3.5-3.5,7.1-7.1,10.6-10.6C31.5,12,37,6.4,42.6,0.8
		C43,0.5,43.5,0.3,43.9,0c0.3,0,0.6,0,0.9,0c0.1,0.1,0.3,0.1,0.4,0.2c1,0.4,1.5,1.5,1.3,2.5c0,0.3-0.1,0.5-0.1,0.8
		c0,11.2,0,22.3,0,33.5c0,0.1,0,0.2,0,0.4c0,0.1,0.1,0.2,0.1,0.3c0.8,0.4,1.2,1,1.4,1.9c0,0.2,0,0.3,0,0.5c-0.2,0.7-0.5,1.4-1.2,1.7
		c-0.3,0.1-0.3,0.3-0.3,0.6c0,1,0,2,0,3c0,1.1-0.5,1.9-1.5,2.5c-0.2,0.1-0.4,0.2-0.6,0.3C44,48,43.7,48,43.4,48z M14.1,29.8
		c0,0-0.1-0.1-0.1-0.1c-0.2,0.2-0.5,0.3-0.8,0.5c-3.5,3.5-7.1,7-10.6,10.6c-0.2,0.2-0.4,0.4-0.6,0.6C1,42.7,1.6,44.6,3.2,45
		c0.9,0.2,1.6,0,2.3-0.7c2.9-2.9,5.9-5.8,8.8-8.8c0.1-0.1,0.1-0.2,0.2-0.2C13.3,33.5,13.2,31.7,14.1,29.8z M18.5,27.1
		c0.5,0.1,0.9,0.1,1.4,0.2c0.3,0.1,0.5,0,0.8-0.2c8-8,16-16,24-24C45,2.7,45.1,2,44.8,1.7c-0.3-0.3-0.8-0.2-1.2,0.3
		c-8.2,8.2-16.5,16.5-24.8,24.8C18.8,26.8,18.6,26.9,18.5,27.1z M20.9,35.4c-0.3-0.3-0.6-0.5-0.9-0.8c-0.2-0.2-0.4-0.3-0.7-0.2
		c-0.9,0.2-1.6,0-2.2-0.7s-0.7-1.5-0.4-2.3c0.4-1.1,1.7-1.7,2.8-1.3c1.1,0.4,1.7,1.6,1.5,2.7c0,0.2-0.1,0.4,0,0.5
		c0.3,0.3,0.6,0.7,0.9,1c1.1-1.4,0.8-3.6-0.6-4.8c-1.5-1.3-3.7-1.2-5.1,0.1c-1.4,1.4-1.5,3.6-0.2,5.1C17.1,36.2,19.4,36.5,20.9,35.4
		z M45,5c-1.9,1.9-3.7,3.7-5.6,5.6C42.1,11,45.2,8.5,45,5z M28.5,21.6c-1.8,1.8-3.7,3.7-5.5,5.5C26.1,27.3,28.8,24.6,28.5,21.6z
		 M31.1,18.8c3.3,0.3,6-2.7,5.6-5.6C34.8,15.1,33,17,31.1,18.8z M19.5,32.3c0-0.4-0.3-0.8-0.7-0.8S18,31.9,18,32.2
		c0,0.4,0.3,0.8,0.7,0.8C19.1,33,19.5,32.7,19.5,32.3z M46.5,39.8c0-0.4-0.3-0.8-0.7-0.8c-0.4,0-0.7,0.3-0.8,0.7
		c0,0.4,0.3,0.8,0.7,0.8C46.1,40.5,46.5,40.2,46.5,39.8z"/>
    
  </symbol>
  <symbol  id="lighthouse" xmlns="http://www.w3.org/2000/svg" x="0px" y="0px" xml:space="preserve" viewBox="0 0 48 48.42">
    
		<path d="M37.5,42.6c-2.4-0.2-4.6,0.2-6.6,1.4c-1.4,0.8-2.7,1.7-4.1,2.5c-2.4,1.5-5,1.9-7.7,1.4c-2.2-0.3-3.6-2.1-3.6-4.2
			c0-2,1.4-3.7,3.5-4.2c0.2,0,0.4-0.1,0.7-0.2c-1.5-0.7-2.9-1-4.4-1.1c-4.8-0.3-9.1,0.9-13,3.6c-0.3,0.2-0.5,0.4-0.8,0.6
			c-0.4,0.3-0.9,0.3-1.2,0c-0.3-0.3-0.4-0.9,0-1.2c0.7-0.6,1.5-1.2,2.3-1.7c3.2-1.8,6.6-3,10.3-3.1c1,0,2,0.1,3.1,0.1
			c0.6-6.2,1.2-12.4,1.8-18.6c-0.3-0.1-0.5-0.1-0.7-0.2c-1.3-0.3-2.1-1.4-2.1-2.7c0.1-1.4,1.1-2.4,2.5-2.6c0.9-0.1,0.9-0.1,1.1-0.9
			c0.4-1.4,0.3-2.8-0.1-4.2C18.4,7.1,18.2,7,17.9,7c-1.1,0-2-0.6-2.2-1.5c-0.2-1,0.2-1.9,1.3-2.4c2-1,4-1.9,5.9-2.8
			c0.9-0.4,1.7-0.4,2.6,0c2,1,4.1,1.9,6.1,2.9c1,0.5,1.4,1.4,1.2,2.4c-0.2,0.9-1.1,1.5-2.1,1.5c-0.3,0-0.5,0.1-0.6,0.4
			c-0.5,1.7-0.5,3.4,0.1,5.1c1-0.1,1.9,0.1,2.6,0.9c0.4,0.5,0.7,1.1,0.7,1.8c0,1.4-1,2.4-2.8,2.7c0.7,7.7,1.5,15.5,2.2,23.2
			c0.9-0.1,1.8-0.3,2.7-0.4c1.5-0.2,3,0.2,4.4,0.7c0.5,0.2,0.8,0.6,0.8,1.2c0,0.6-0.3,1-0.8,1.2c-0.5,0.2-1,0.2-1.5,0.4
			c-0.7,0.2-1.3,0.5-2,0.7c0,0.1,0,0.2,0,0.3c0.5,0.3,1.1,0.6,1.6,0.8c2,0.8,4,0.8,6,0.5c1-0.1,1.9-0.4,2.9-0.6
			c0.5-0.1,0.9,0.2,1.1,0.6c0.1,0.4-0.1,0.9-0.6,1c-2.8,0.7-5.7,1.2-8.5,0.4c-1.1-0.3-2.1-0.7-3.1-1.3c-1.5-0.9-1.4-2.5,0.1-3.4
			C36.3,43.1,36.8,42.9,37.5,42.6z M23,38.9c0.1,0.1,0.1,0.2,0.1,0.2c0.3,0.5,0.4,1,0,1.5c-0.3,0.5-0.8,0.6-1.4,0.5
			c-0.2,0-0.5-0.1-0.7-0.1c-0.9,0-1.8,0.1-2.7,0.5c-1.5,0.8-1.8,2.8-0.5,4c0.6,0.6,1.4,0.8,2.2,0.8c2.3,0,4.5-0.5,6.5-1.8
			c1.4-0.9,2.8-1.7,4.2-2.6c0.1-0.1,0.3-0.3,0.3-0.5c0-0.6-0.1-1.1-0.1-1.7c-0.1-1-0.2-2-0.3-3C28.1,37.5,25.6,38.2,23,38.9z
			M17.7,36.9c0.7,0.2,1.4,0.4,2.1,0.6c0.5,0.2,1,0.2,1.5,0c2.9-0.8,5.8-1.6,8.7-2.4c0.4-0.1,0.5-0.2,0.4-0.6
			c-0.1-0.5-0.1-0.9-0.1-1.4c-0.1-1.2-0.2-2.4-0.4-3.6c-0.1,0-0.2,0-0.2,0c-3.8,1-7.6,2-11.4,3c-0.1,0-0.3,0.2-0.3,0.4
			C18,34.3,17.9,35.6,17.7,36.9z M18.3,30.8c3.9-1,7.7-2,11.5-3c-0.2-2-0.4-3.8-0.6-5.8c-3.4,0.8-6.7,1.7-10.1,2.5
			c-0.1,0-0.3,0.3-0.4,0.4c-0.1,0.8-0.2,1.6-0.2,2.4C18.5,28.5,18.4,29.6,18.3,30.8z M20.2,7.1c0.6,1.9,0.5,3.7,0,5.5
			c2.7,0,5.4,0,8.1,0c-0.5-1.9-0.5-3.7,0-5.5C25.6,7.1,22.9,7.1,20.2,7.1z M19.5,18c-0.1,1.6-0.3,3.2-0.5,4.8c3.4-0.8,6.7-1.7,10-2.5
			C29,19.5,29,18.7,28.9,18C25.8,18,22.7,18,19.5,18z M30.5,5.3c0.2,0,0.4-0.1,0.8-0.2c-0.3-0.2-0.4-0.3-0.5-0.4c-2-1-4-1.9-6-2.9
			c-0.3-0.1-0.7-0.1-1,0c-2,0.9-4,1.9-6,2.8c-0.1,0.1-0.3,0.2-0.4,0.3c0,0.1,0,0.1,0,0.2c0.2,0.1,0.4,0.2,0.6,0.2 M24.3,14.4
			c-2.1,0-4.2,0-6.3,0c-0.7,0-1.2,0.3-1.2,0.9c0,0.6,0.4,0.9,1.1,0.9c4.2,0,8.4,0,12.6,0c0.7,0,1.1-0.4,1.1-0.9
			c0-0.6-0.4-0.9-1.2-0.9C28.4,14.4,26.4,14.4,24.3,14.4z"/>
		<path d="M2.5,5.8c2,0.2,4,0.5,6,0.7c1.3,0.2,2.7,0.3,4,0.5c0.6,0.1,0.9,0.5,0.8,1c-0.1,0.5-0.5,0.8-1.1,0.7
			C8.9,8.3,5.6,7.9,2.3,7.6c-0.7-0.1-1.1-0.5-1-1.1C1.5,6,1.8,5.8,2.5,5.8z"/>
		<path d="M12.4,10.5c0.5,0,0.9,0.3,0.9,0.8c0,0.5-0.3,0.9-0.8,0.9c-1.9,0.2-3.7,0.4-5.6,0.7c-1.5,0.2-3,0.3-4.4,0.5
			c-0.4,0.1-0.8,0-1-0.4c-0.1-0.3,0-0.6,0.1-0.9c0.1-0.2,0.4-0.3,0.6-0.4c3.3-0.4,6.7-0.8,10-1.2C12.3,10.5,12.3,10.5,12.4,10.5z"/>
		<path d="M36.1,10.5c2,0.2,4,0.5,6,0.7c1.3,0.1,2.5,0.3,3.8,0.5c0.7,0.1,1,0.4,0.9,1c-0.1,0.5-0.5,0.8-1.1,0.7
			c-3.2-0.4-6.4-0.7-9.7-1.1c-0.6-0.1-1-0.4-0.9-1C35.2,10.8,35.6,10.5,36.1,10.5z"/>
		<path d="M46,5.8c0.5,0,0.9,0.3,0.9,0.8c0,0.5-0.3,0.8-0.8,0.9c-2.1,0.3-4.3,0.5-6.4,0.8c-1.1,0.1-2.2,0.2-3.3,0.4
			c-0.6,0.1-1.1-0.2-1.1-0.7c-0.1-0.5,0.3-0.9,0.9-1c3.2-0.4,6.5-0.8,9.8-1.2C45.8,5.8,45.9,5.8,46,5.8z"/>
    
  </symbol>
</svg>